<svg xmlns="http://www.w3.org/2000/svg" width="960" height="560" viewBox="0 0 960 560" fill="none"><style>.cg-root .title{font:700 28px 'Space Grotesk', 'Pretendard', 'Apple SD Gothic Neo', sans-serif; fill:#0f172a; letter-spacing:-0.03em;}.cg-root .subtitle{font:500 18px 'Space Grotesk', 'Pretendard', 'Apple SD Gothic Neo', sans-serif; fill:#314155;}.cg-root .label,.cg-root .axis,.cg-root .header,.cg-root .cell{font:600 16px 'Space Grotesk', 'Pretendard', 'Apple SD Gothic Neo', sans-serif; fill:#314155;}.cg-root .value{font:700 16px 'Space Grotesk', 'Pretendard', 'Apple SD Gothic Neo', sans-serif; fill:#0f172a;}.cg-root .header{font-weight:700; fill:#0f172a;}.cg-root .tick{font:500 14px 'Space Grotesk', 'Pretendard', 'Apple SD Gothic Neo', sans-serif; fill:#64748b;}.cg-root .source{font:500 14px 'Space Grotesk', 'Pretendard', 'Apple SD Gothic Neo', sans-serif; fill:#64748b; letter-spacing:0.01em;}.cg-root .stat{font:800 72px 'Space Grotesk', 'Pretendard', 'Apple SD Gothic Neo', sans-serif; fill:#0f172a; letter-spacing:-0.04em;}</style><rect x="0" y="0" width="960" height="560" fill="#fcfdff" /><g class="cg-root"><text x="60" y="52" class="title" fill="#0f172a" style="fill:#0f172a !important;">입체 막대 스타일로 제품군을 비교하라</text><text x="60" y="82" class="subtitle" fill="#314155" style="fill:#314155 !important;">label value list normalized dataset · unit: 점</text><line x1="80" y1="240.67" x2="920" y2="240.67" stroke="#cbd5e1" stroke-width="1" stroke-opacity="0.55" /><line x1="80" y1="355.33" x2="920" y2="355.33" stroke="#cbd5e1" stroke-width="1" stroke-opacity="0.55" /><line x1="80" y1="470" x2="920" y2="470" stroke="#94a3b8" stroke-width="2" /><line x1="80" y1="126" x2="80" y2="470" stroke="#94a3b8" stroke-width="2" /><rect x="188.00" y="126.00" width="64.00" height="344.00" fill="#2563eb" rx="4" /><polygon points="252.00,126.00 262.00,116.00 262.00,460.00 252.00,470.00" fill="#0f766e" /><polygon points="188.00,126.00 198.00,116.00 262.00,116.00 252.00,126.00" fill="#2563eb" /><text x="220.00" y="494" class="tick" text-anchor="middle" fill="#64748b" style="fill:#64748b !important;">A</text><rect x="468.00" y="212.00" width="64.00" height="258.00" fill="#2563eb" rx="4" /><polygon points="532.00,212.00 542.00,202.00 542.00,460.00 532.00,470.00" fill="#0f766e" /><polygon points="468.00,212.00 478.00,202.00 542.00,202.00 532.00,212.00" fill="#2563eb" /><text x="500.00" y="494" class="tick" text-anchor="middle" fill="#64748b" style="fill:#64748b !important;">B</text><rect x="748.00" y="255.00" width="64.00" height="215.00" fill="#2563eb" rx="4" /><polygon points="812.00,255.00 822.00,245.00 822.00,460.00 812.00,470.00" fill="#0f766e" /><polygon points="748.00,255.00 758.00,245.00 822.00,245.00 812.00,255.00" fill="#2563eb" /><text x="780.00" y="494" class="tick" text-anchor="middle" fill="#64748b" style="fill:#64748b !important;">C</text><text x="900" y="536" class="source" text-anchor="end" opacity="0.78" fill="#64748b" style="fill:#64748b !important;">Source: Creative direction memo</text></g></svg>