<svg xmlns="http://www.w3.org/2000/svg" width="960" height="560" viewBox="0 0 960 560" fill="none"><style>.cg-root .title{font:700 28px 'Space Grotesk', 'Pretendard', 'Apple SD Gothic Neo', sans-serif; fill:#0f172a; letter-spacing:-0.03em;}.cg-root .subtitle{font:500 18px 'Space Grotesk', 'Pretendard', 'Apple SD Gothic Neo', sans-serif; fill:#314155;}.cg-root .label,.cg-root .axis,.cg-root .header,.cg-root .cell{font:600 16px 'Space Grotesk', 'Pretendard', 'Apple SD Gothic Neo', sans-serif; fill:#314155;}.cg-root .value{font:700 16px 'Space Grotesk', 'Pretendard', 'Apple SD Gothic Neo', sans-serif; fill:#0f172a;}.cg-root .header{font-weight:700; fill:#0f172a;}.cg-root .tick{font:500 14px 'Space Grotesk', 'Pretendard', 'Apple SD Gothic Neo', sans-serif; fill:#64748b;}.cg-root .source{font:500 14px 'Space Grotesk', 'Pretendard', 'Apple SD Gothic Neo', sans-serif; fill:#64748b; letter-spacing:0.01em;}.cg-root .stat{font:800 72px 'Space Grotesk', 'Pretendard', 'Apple SD Gothic Neo', sans-serif; fill:#0f172a; letter-spacing:-0.04em;}</style><rect x="0" y="0" width="960" height="560" fill="#fcfdff" /><g class="cg-root"><text x="60" y="52" class="title" fill="#0f172a" style="fill:#0f172a !important;">색맹 접근성을 위해 지역별 실적을 세로 막대로 비교하라</text><text x="60" y="82" class="subtitle" fill="#314155" style="fill:#314155 !important;">단위: 억</text><line x1="80" y1="240.67" x2="920" y2="240.67" stroke="#cbd5e1" stroke-width="1" stroke-opacity="0.55" /><line x1="80" y1="355.33" x2="920" y2="355.33" stroke="#cbd5e1" stroke-width="1" stroke-opacity="0.55" /><line x1="80" y1="470" x2="920" y2="470" stroke="#94a3b8" stroke-width="2" /><line x1="80" y1="126" x2="80" y2="470" stroke="#94a3b8" stroke-width="2" /><rect x="153.00" y="126.00" width="64.00" height="344.00" fill="url(#cg-pattern-bar-0)" rx="8" /><text x="185.00" y="494" class="tick" text-anchor="middle" fill="#64748b" style="fill:#64748b !important;">US</text><rect x="363.00" y="183.33" width="64.00" height="286.67" fill="url(#cg-pattern-bar-1)" rx="8" /><text x="395.00" y="494" class="tick" text-anchor="middle" fill="#64748b" style="fill:#64748b !important;">EU</text><rect x="573.00" y="212.00" width="64.00" height="258.00" fill="url(#cg-pattern-bar-2)" rx="8" /><text x="605.00" y="494" class="tick" text-anchor="middle" fill="#64748b" style="fill:#64748b !important;">KR</text><rect x="783.00" y="283.67" width="64.00" height="186.33" fill="url(#cg-pattern-bar-3)" rx="8" /><text x="815.00" y="494" class="tick" text-anchor="middle" fill="#64748b" style="fill:#64748b !important;">JP</text><defs><pattern id="cg-pattern-bar-0" patternUnits="userSpaceOnUse" width="24.00" height="24.00"><rect x="0" y="0" width="24.00" height="24.00" fill="#2563eb" /><circle cx="6.24" cy="5.76" r="4.18" fill="#fcfdff" fill-opacity="0.169" /><circle cx="17.76" cy="12.96" r="2.93" fill="#fcfdff" fill-opacity="0.130" /><circle cx="4.32" cy="19.20" r="2.12" fill="#fcfdff" fill-opacity="0.094" /><circle cx="20.16" cy="20.16" r="1.81" fill="#fcfdff" fill-opacity="0.079" /></pattern><pattern id="cg-pattern-bar-1" patternUnits="userSpaceOnUse" width="24.00" height="24.00"><rect x="0" y="0" width="24.00" height="24.00" fill="#2563eb" /><circle cx="6.24" cy="5.76" r="4.18" fill="#fcfdff" fill-opacity="0.169" /><circle cx="17.76" cy="12.96" r="2.93" fill="#fcfdff" fill-opacity="0.130" /><circle cx="4.32" cy="19.20" r="2.12" fill="#fcfdff" fill-opacity="0.094" /><circle cx="20.16" cy="20.16" r="1.81" fill="#fcfdff" fill-opacity="0.079" /></pattern><pattern id="cg-pattern-bar-2" patternUnits="userSpaceOnUse" width="24.00" height="24.00"><rect x="0" y="0" width="24.00" height="24.00" fill="#2563eb" /><circle cx="6.24" cy="5.76" r="4.18" fill="#fcfdff" fill-opacity="0.169" /><circle cx="17.76" cy="12.96" r="2.93" fill="#fcfdff" fill-opacity="0.130" /><circle cx="4.32" cy="19.20" r="2.12" fill="#fcfdff" fill-opacity="0.094" /><circle cx="20.16" cy="20.16" r="1.81" fill="#fcfdff" fill-opacity="0.079" /></pattern><pattern id="cg-pattern-bar-3" patternUnits="userSpaceOnUse" width="24.00" height="24.00"><rect x="0" y="0" width="24.00" height="24.00" fill="#2563eb" /><circle cx="6.24" cy="5.76" r="4.18" fill="#fcfdff" fill-opacity="0.169" /><circle cx="17.76" cy="12.96" r="2.93" fill="#fcfdff" fill-opacity="0.130" /><circle cx="4.32" cy="19.20" r="2.12" fill="#fcfdff" fill-opacity="0.094" /><circle cx="20.16" cy="20.16" r="1.81" fill="#fcfdff" fill-opacity="0.079" /></pattern></defs><text x="900" y="536" class="source" text-anchor="end" opacity="0.78" fill="#64748b" style="fill:#64748b !important;">Source: Accessibility review</text></g></svg>