<svg xmlns="http://www.w3.org/2000/svg" width="960" height="560" viewBox="0 0 960 560" fill="none"><style>.cg-root .title{font:700 28px 'Space Grotesk', 'Pretendard', 'Apple SD Gothic Neo', sans-serif; fill:#0f172a; letter-spacing:-0.03em;}.cg-root .subtitle{font:500 18px 'IBM Plex Sans KR', 'Pretendard', 'Apple SD Gothic Neo', sans-serif; fill:#0f4c5c;}.cg-root .label,.cg-root .axis,.cg-root .header,.cg-root .cell{font:650 16px 'IBM Plex Sans KR', 'Pretendard', 'Apple SD Gothic Neo', sans-serif; fill:#0f4c5c;}.cg-root .value{font:700 16px 'IBM Plex Sans KR', 'Pretendard', 'Apple SD Gothic Neo', sans-serif; fill:#0f172a;}.cg-root .header{font-weight:700; fill:#0f172a;}.cg-root .tick{font:500 14px 'IBM Plex Sans KR', 'Pretendard', 'Apple SD Gothic Neo', sans-serif; fill:#5a6c78;}.cg-root .source{font:500 14px 'IBM Plex Sans KR', 'Pretendard', 'Apple SD Gothic Neo', sans-serif; fill:#5a6c78; letter-spacing:0.01em;}.cg-root .stat{font:800 72px 'Space Grotesk', 'Pretendard', 'Apple SD Gothic Neo', sans-serif; fill:#0f172a; letter-spacing:-0.04em;}</style><rect x="0" y="0" width="960" height="560" fill="#eef6f7" /><g class="cg-root"><text x="60" y="52" class="title" fill="#0f172a" style="fill:#0f172a !important;">빗금 패턴으로 지역별 실적을 세로 막대로 비교하라</text><text x="60" y="82" class="subtitle" fill="#0f4c5c" style="fill:#0f4c5c !important;">단위: 억</text><line x1="80" y1="212.00" x2="920" y2="212.00" stroke="#cbd5e1" stroke-width="1" stroke-opacity="0.36" /><line x1="80" y1="298.00" x2="920" y2="298.00" stroke="#cbd5e1" stroke-width="1" stroke-opacity="0.36" /><line x1="80" y1="384.00" x2="920" y2="384.00" stroke="#cbd5e1" stroke-width="1" stroke-opacity="0.36" /><line x1="80" y1="470" x2="920" y2="470" stroke="#94a3b8" stroke-width="2" /><line x1="80" y1="126" x2="80" y2="470" stroke="#94a3b8" stroke-width="2" /><rect x="153.00" y="126.00" width="64.00" height="344.00" fill="url(#cg-pattern-bar-0)" stroke="#0f766e" stroke-width="2.2" rx="10" /><text x="185.00" y="494" class="tick" text-anchor="middle" fill="#5a6c78" style="fill:#5a6c78 !important;">US</text><rect x="363.00" y="189.70" width="64.00" height="280.30" fill="url(#cg-pattern-bar-1)" stroke="#0f766e" stroke-width="2.2" rx="10" /><text x="395.00" y="494" class="tick" text-anchor="middle" fill="#5a6c78" style="fill:#5a6c78 !important;">EU</text><rect x="573.00" y="227.93" width="64.00" height="242.07" fill="url(#cg-pattern-bar-2)" stroke="#0f766e" stroke-width="2.2" rx="10" /><text x="605.00" y="494" class="tick" text-anchor="middle" fill="#5a6c78" style="fill:#5a6c78 !important;">KR</text><rect x="783.00" y="278.89" width="64.00" height="191.11" fill="url(#cg-pattern-bar-3)" stroke="#0f766e" stroke-width="2.2" rx="10" /><text x="815.00" y="494" class="tick" text-anchor="middle" fill="#5a6c78" style="fill:#5a6c78 !important;">JP</text><defs><pattern id="cg-pattern-bar-0" patternUnits="userSpaceOnUse" width="10.00" height="10.00"><path d="M -5.00 5.00 L 5.00 -5.00 M 0 10.00 L 10.00 0 M 5.00 15.00 L 15.00 5.00" stroke="#0f766e" stroke-width="1.1" stroke-opacity="0.56" /></pattern><pattern id="cg-pattern-bar-1" patternUnits="userSpaceOnUse" width="10.00" height="10.00"><path d="M -5.00 5.00 L 5.00 -5.00 M 0 10.00 L 10.00 0 M 5.00 15.00 L 15.00 5.00" stroke="#0f766e" stroke-width="1.1" stroke-opacity="0.56" /></pattern><pattern id="cg-pattern-bar-2" patternUnits="userSpaceOnUse" width="10.00" height="10.00"><path d="M -5.00 5.00 L 5.00 -5.00 M 0 10.00 L 10.00 0 M 5.00 15.00 L 15.00 5.00" stroke="#0f766e" stroke-width="1.1" stroke-opacity="0.56" /></pattern><pattern id="cg-pattern-bar-3" patternUnits="userSpaceOnUse" width="10.00" height="10.00"><path d="M -5.00 5.00 L 5.00 -5.00 M 0 10.00 L 10.00 0 M 5.00 15.00 L 15.00 5.00" stroke="#0f766e" stroke-width="1.1" stroke-opacity="0.56" /></pattern></defs><text x="900" y="536" class="source" text-anchor="end" opacity="0.8" fill="#5a6c78" style="fill:#5a6c78 !important;">Source: Pattern reference set</text></g></svg>