<svg xmlns="http://www.w3.org/2000/svg" width="960" height="358" viewBox="0 0 960 358" fill="none"><style>.cg-root .title{font:700 30px 'Space Grotesk', 'Pretendard', 'Apple SD Gothic Neo', sans-serif; fill:#2a1d16; letter-spacing:-0.03em;}.cg-root .subtitle{font:500 18px 'IBM Plex Sans KR', 'Pretendard', 'Apple SD Gothic Neo', sans-serif; fill:#5f463c;}.cg-root .label,.cg-root .axis,.cg-root .header,.cg-root .cell{font:650 16px 'IBM Plex Sans KR', 'Pretendard', 'Apple SD Gothic Neo', sans-serif; fill:#5f463c;}.cg-root .value{font:700 16px 'IBM Plex Sans KR', 'Pretendard', 'Apple SD Gothic Neo', sans-serif; fill:#2a1d16;}.cg-root .header{font-weight:700; fill:#2a1d16;}.cg-root .tick{font:500 14px 'IBM Plex Sans KR', 'Pretendard', 'Apple SD Gothic Neo', sans-serif; fill:#8a6f63;}.cg-root .source{font:500 14px 'IBM Plex Sans KR', 'Pretendard', 'Apple SD Gothic Neo', sans-serif; fill:#8a6f63; letter-spacing:0.01em;}.cg-root .stat{font:800 72px 'Space Grotesk', 'Pretendard', 'Apple SD Gothic Neo', sans-serif; fill:#2a1d16; letter-spacing:-0.04em;}</style><rect x="0" y="0" width="960" height="358" fill="#fff6ea" /><g class="cg-root"><text x="60" y="50" class="title" fill="#2a1d16" style="fill:#2a1d16 !important;">세 플랜은 무엇이 다른가?</text><text x="60" y="78" class="subtitle" fill="#5f463c" style="fill:#5f463c !important;">row column table normalized dataset</text><rect x="60" y="128" width="840" height="40" fill="#ffe4c1" rx="12" /><text x="74.00" y="153" class="header" fill="#2a1d16" style="fill:#2a1d16 !important;">플랜</text><text x="466.00" y="153" class="header" text-anchor="end" fill="#2a1d16" style="fill:#2a1d16 !important;">월 요금</text><text x="494.00" y="153" class="header" fill="#2a1d16" style="fill:#2a1d16 !important;">AI 크레딧</text><text x="886.00" y="153" class="header" text-anchor="end" fill="#2a1d16" style="fill:#2a1d16 !important;">협업 좌석</text><rect x="60" y="168" width="840" height="40" fill="#fff0de" /><text x="74.00" y="193" class="cell" fill="#5f463c" style="fill:#5f463c !important;">Starter</text><line x1="60.00" y1="128" x2="60.00" y2="208" stroke="#d8cfc4" /><text x="466.00" y="193" class="cell" text-anchor="end" fill="#5f463c" style="fill:#5f463c !important;">9,900</text><line x1="270.00" y1="128" x2="270.00" y2="208" stroke="#d8cfc4" /><text x="494.00" y="193" class="cell" fill="#5f463c" style="fill:#5f463c !important;">50</text><line x1="480.00" y1="128" x2="480.00" y2="208" stroke="#d8cfc4" /><text x="886.00" y="193" class="cell" text-anchor="end" fill="#5f463c" style="fill:#5f463c !important;">1</text><line x1="690.00" y1="128" x2="690.00" y2="208" stroke="#d8cfc4" /><rect x="60" y="208" width="840" height="40" fill="#ffe8cc" /><text x="74.00" y="233" class="cell" fill="#5f463c" style="fill:#5f463c !important;">Pro</text><line x1="60.00" y1="128" x2="60.00" y2="248" stroke="#d8cfc4" /><text x="466.00" y="233" class="cell" text-anchor="end" fill="#5f463c" style="fill:#5f463c !important;">24,900</text><line x1="270.00" y1="128" x2="270.00" y2="248" stroke="#d8cfc4" /><text x="494.00" y="233" class="cell" fill="#5f463c" style="fill:#5f463c !important;">250</text><line x1="480.00" y1="128" x2="480.00" y2="248" stroke="#d8cfc4" /><text x="886.00" y="233" class="cell" text-anchor="end" fill="#5f463c" style="fill:#5f463c !important;">5</text><line x1="690.00" y1="128" x2="690.00" y2="248" stroke="#d8cfc4" /><rect x="60" y="248" width="840" height="40" fill="#fff0de" /><text x="74.00" y="273" class="cell" fill="#5f463c" style="fill:#5f463c !important;">Scale</text><line x1="60.00" y1="128" x2="60.00" y2="288" stroke="#d8cfc4" /><text x="466.00" y="273" class="cell" text-anchor="end" fill="#5f463c" style="fill:#5f463c !important;">59,000</text><line x1="270.00" y1="128" x2="270.00" y2="288" stroke="#d8cfc4" /><text x="494.00" y="273" class="cell" fill="#5f463c" style="fill:#5f463c !important;">Unlimited</text><line x1="480.00" y1="128" x2="480.00" y2="288" stroke="#d8cfc4" /><text x="886.00" y="273" class="cell" text-anchor="end" fill="#5f463c" style="fill:#5f463c !important;">20</text><line x1="690.00" y1="128" x2="690.00" y2="288" stroke="#d8cfc4" /><line x1="900.00" y1="128" x2="900.00" y2="288" stroke="#d8cfc4" /><text x="60" y="334" class="source" opacity="0.8" fill="#8a6f63" style="fill:#8a6f63 !important;">Source: Theme gallery benchmark</text></g></svg>