<svg xmlns="http://www.w3.org/2000/svg" width="960" height="558" viewBox="0 0 960 558" fill="none"><style>.cg-root .title{font:700 28px 'Space Grotesk', 'Pretendard', 'Apple SD Gothic Neo', sans-serif; fill:#f8fafc; letter-spacing:-0.03em;}.cg-root .subtitle{font:500 18px 'IBM Plex Sans KR', 'Pretendard', 'Apple SD Gothic Neo', sans-serif; fill:#dbeafe;}.cg-root .label,.cg-root .axis,.cg-root .header,.cg-root .cell{font:720 16px 'IBM Plex Sans KR', 'Pretendard', 'Apple SD Gothic Neo', sans-serif; fill:#dbeafe;}.cg-root .value{font:700 16px 'IBM Plex Sans KR', 'Pretendard', 'Apple SD Gothic Neo', sans-serif; fill:#f8fafc;}.cg-root .header{font-weight:700; fill:#f8fafc;}.cg-root .tick{font:500 14px 'IBM Plex Sans KR', 'Pretendard', 'Apple SD Gothic Neo', sans-serif; fill:#93c5fd;}.cg-root .source{font:600 14px 'IBM Plex Sans KR', 'Pretendard', 'Apple SD Gothic Neo', sans-serif; fill:#93c5fd; letter-spacing:0.01em;}.cg-root .stat{font:800 72px 'Space Grotesk', 'Pretendard', 'Apple SD Gothic Neo', sans-serif; fill:#f8fafc; letter-spacing:-0.04em;}</style><rect x="0" y="0" width="960" height="558" fill="#07101c" /><g class="cg-root"><text x="60" y="56" class="title" fill="#f8fafc" style="fill:#f8fafc !important;">핵심 KPI를 카드 벽으로 요약하라</text><text x="60" y="88" class="subtitle" fill="#dbeafe" style="fill:#dbeafe !important;">label value list normalized dataset</text><rect x="60" y="146" width="400" height="156" rx="16" fill="#12203a" /><rect x="60" y="146" width="8" height="156" rx="6" fill="#fb923c" /><rect x="80" y="164" width="116" height="24" rx="8" fill="#16243f" /><text x="92" y="181" class="source" fill="#93c5fd" style="fill:#93c5fd !important;">SIGNAL KPI</text><text x="80" y="212" class="subtitle" fill="#dbeafe" style="fill:#dbeafe !important;">Active Seats</text><text x="80" y="268" class="stat" font-size="46" fill="#f8fafc" style="fill:#f8fafc !important;">320만</text><line x1="80" y1="284" x2="436" y2="284" stroke="#67e8f9" stroke-width="2" stroke-opacity="0.5" /><rect x="488" y="146" width="400" height="156" rx="16" fill="#12203a" /><rect x="488" y="146" width="8" height="156" rx="6" fill="#fb923c" /><rect x="508" y="164" width="116" height="24" rx="8" fill="#16243f" /><text x="520" y="181" class="source" fill="#93c5fd" style="fill:#93c5fd !important;">SIGNAL KPI</text><text x="508" y="212" class="subtitle" fill="#dbeafe" style="fill:#dbeafe !important;">ARR</text><text x="508" y="268" class="stat" font-size="46" fill="#f8fafc" style="fill:#f8fafc !important;">128억</text><line x1="508" y1="284" x2="864" y2="284" stroke="#67e8f9" stroke-width="2" stroke-opacity="0.5" /><rect x="60" y="330" width="400" height="156" rx="16" fill="#12203a" /><rect x="60" y="330" width="8" height="156" rx="6" fill="#fb923c" /><rect x="80" y="348" width="116" height="24" rx="8" fill="#16243f" /><text x="92" y="365" class="source" fill="#93c5fd" style="fill:#93c5fd !important;">SIGNAL KPI</text><text x="80" y="396" class="subtitle" fill="#dbeafe" style="fill:#dbeafe !important;">Gross Margin</text><text x="80" y="452" class="stat" font-size="46" fill="#f8fafc" style="fill:#f8fafc !important;">71%</text><line x1="80" y1="468" x2="436" y2="468" stroke="#67e8f9" stroke-width="2" stroke-opacity="0.5" /><line x1="934" y1="442" x2="934" y2="540" stroke="#4b5d78" stroke-width="2" stroke-opacity="0.92" /><text x="920" y="534" class="source" text-anchor="end" opacity="0.92" fill="#93c5fd" style="fill:#93c5fd !important;">Source: Theme gallery benchmark</text></g></svg>