<svg xmlns="http://www.w3.org/2000/svg" width="960" height="342" viewBox="0 0 960 342" fill="none"><style>.cg-root .title{font:700 28px 'Space Grotesk', 'Pretendard', 'Apple SD Gothic Neo', sans-serif; fill:#0f172a; letter-spacing:-0.03em;}.cg-root .subtitle{font:500 18px 'IBM Plex Sans KR', 'Pretendard', 'Apple SD Gothic Neo', sans-serif; fill:#0f4c5c;}.cg-root .label,.cg-root .axis,.cg-root .header,.cg-root .cell{font:650 16px 'IBM Plex Sans KR', 'Pretendard', 'Apple SD Gothic Neo', sans-serif; fill:#0f4c5c;}.cg-root .value{font:700 16px 'IBM Plex Sans KR', 'Pretendard', 'Apple SD Gothic Neo', sans-serif; fill:#0f172a;}.cg-root .header{font-weight:700; fill:#0f172a;}.cg-root .tick{font:500 14px 'IBM Plex Sans KR', 'Pretendard', 'Apple SD Gothic Neo', sans-serif; fill:#5a6c78;}.cg-root .source{font:500 14px 'IBM Plex Sans KR', 'Pretendard', 'Apple SD Gothic Neo', sans-serif; fill:#5a6c78; letter-spacing:0.01em;}.cg-root .stat{font:800 72px 'Space Grotesk', 'Pretendard', 'Apple SD Gothic Neo', sans-serif; fill:#0f172a; letter-spacing:-0.04em;}</style><rect x="0" y="0" width="960" height="342" fill="#eef6f7" /><g class="cg-root"><text x="60" y="50" class="title" fill="#0f172a" style="fill:#0f172a !important;">세 옵션은 무엇이 다른가?</text><rect x="60" y="112" width="840" height="40" fill="#dceff0" rx="12" /><text x="74.00" y="137" class="header" fill="#0f172a" style="fill:#0f172a !important;">플랜</text><text x="606.00" y="137" class="header" text-anchor="end" fill="#0f172a" style="fill:#0f172a !important;">월 요금</text><text x="634.00" y="137" class="header" fill="#0f172a" style="fill:#0f172a !important;">저장 용량</text><rect x="60" y="152" width="840" height="40" fill="#ffffff" /><text x="74.00" y="177" class="cell" fill="#0f4c5c" style="fill:#0f4c5c !important;">Basic</text><line x1="60.00" y1="112" x2="60.00" y2="192" stroke="#cbd5e1" /><text x="606.00" y="177" class="cell" text-anchor="end" fill="#0f4c5c" style="fill:#0f4c5c !important;">9,900</text><line x1="340.00" y1="112" x2="340.00" y2="192" stroke="#cbd5e1" /><text x="634.00" y="177" class="cell" fill="#0f4c5c" style="fill:#0f4c5c !important;">100GB</text><line x1="620.00" y1="112" x2="620.00" y2="192" stroke="#cbd5e1" /><rect x="60" y="192" width="840" height="40" fill="#e3f0f2" /><text x="74.00" y="217" class="cell" fill="#0f4c5c" style="fill:#0f4c5c !important;">Pro</text><line x1="60.00" y1="112" x2="60.00" y2="232" stroke="#cbd5e1" /><text x="606.00" y="217" class="cell" text-anchor="end" fill="#0f4c5c" style="fill:#0f4c5c !important;">19,900</text><line x1="340.00" y1="112" x2="340.00" y2="232" stroke="#cbd5e1" /><text x="634.00" y="217" class="cell" fill="#0f4c5c" style="fill:#0f4c5c !important;">1TB</text><line x1="620.00" y1="112" x2="620.00" y2="232" stroke="#cbd5e1" /><rect x="60" y="232" width="840" height="40" fill="#ffffff" /><text x="74.00" y="257" class="cell" fill="#0f4c5c" style="fill:#0f4c5c !important;">Enterprise</text><line x1="60.00" y1="112" x2="60.00" y2="272" stroke="#cbd5e1" /><text x="606.00" y="257" class="cell" text-anchor="end" fill="#0f4c5c" style="fill:#0f4c5c !important;">49,900</text><line x1="340.00" y1="112" x2="340.00" y2="272" stroke="#cbd5e1" /><text x="634.00" y="257" class="cell" fill="#0f4c5c" style="fill:#0f4c5c !important;">무제한</text><line x1="620.00" y1="112" x2="620.00" y2="272" stroke="#cbd5e1" /><line x1="900.00" y1="112" x2="900.00" y2="272" stroke="#cbd5e1" /><text x="900" y="318" class="source" text-anchor="end" opacity="0.8" fill="#5a6c78" style="fill:#5a6c78 !important;">Source: Pricing page</text></g></svg>