<svg xmlns="http://www.w3.org/2000/svg" width="960" height="342" viewBox="0 0 960 342" fill="none"><style>.cg-root .title{font:700 28px 'Space Grotesk', 'Pretendard', 'Apple SD Gothic Neo', sans-serif; fill:#0f172a; letter-spacing:-0.03em;}.cg-root .subtitle{font:500 18px 'Space Grotesk', 'Pretendard', 'Apple SD Gothic Neo', sans-serif; fill:#314155;}.cg-root .label,.cg-root .axis,.cg-root .header,.cg-root .cell{font:600 16px 'Space Grotesk', 'Pretendard', 'Apple SD Gothic Neo', sans-serif; fill:#314155;}.cg-root .value{font:700 16px 'Space Grotesk', 'Pretendard', 'Apple SD Gothic Neo', sans-serif; fill:#0f172a;}.cg-root .header{font-weight:700; fill:#0f172a;}.cg-root .tick{font:500 14px 'Space Grotesk', 'Pretendard', 'Apple SD Gothic Neo', sans-serif; fill:#64748b;}.cg-root .source{font:500 14px 'Space Grotesk', 'Pretendard', 'Apple SD Gothic Neo', sans-serif; fill:#64748b; letter-spacing:0.01em;}.cg-root .stat{font:800 72px 'Space Grotesk', 'Pretendard', 'Apple SD Gothic Neo', sans-serif; fill:#0f172a; letter-spacing:-0.04em;}</style><rect x="0" y="0" width="960" height="342" fill="#fcfdff" /><g class="cg-root"><text x="60" y="50" class="title" fill="#0f172a" style="fill:#0f172a !important;">접근성 세트에서도 플랜 비교표를 유지하라</text><rect x="60" y="112" width="840" height="40" fill="#e8eef5" rx="12" /><text x="74.00" y="137" class="header" fill="#0f172a" style="fill:#0f172a !important;">플랜</text><text x="466.00" y="137" class="header" text-anchor="end" fill="#0f172a" style="fill:#0f172a !important;">월 요금</text><text x="494.00" y="137" class="header" fill="#0f172a" style="fill:#0f172a !important;">AI 크레딧</text><text x="886.00" y="137" class="header" text-anchor="end" fill="#0f172a" style="fill:#0f172a !important;">협업 좌석</text><rect x="60" y="152" width="840" height="40" fill="#ffffff" /><text x="74.00" y="177" class="cell" fill="#314155" style="fill:#314155 !important;">Starter</text><line x1="60.00" y1="112" x2="60.00" y2="192" stroke="#cbd5e1" /><text x="466.00" y="177" class="cell" text-anchor="end" fill="#314155" style="fill:#314155 !important;">9,900</text><line x1="270.00" y1="112" x2="270.00" y2="192" stroke="#cbd5e1" /><text x="494.00" y="177" class="cell" fill="#314155" style="fill:#314155 !important;">50</text><line x1="480.00" y1="112" x2="480.00" y2="192" stroke="#cbd5e1" /><text x="886.00" y="177" class="cell" text-anchor="end" fill="#314155" style="fill:#314155 !important;">1</text><line x1="690.00" y1="112" x2="690.00" y2="192" stroke="#cbd5e1" /><rect x="60" y="192" width="840" height="40" fill="#f4f7fb" /><text x="74.00" y="217" class="cell" fill="#314155" style="fill:#314155 !important;">Pro</text><line x1="60.00" y1="112" x2="60.00" y2="232" stroke="#cbd5e1" /><text x="466.00" y="217" class="cell" text-anchor="end" fill="#314155" style="fill:#314155 !important;">24,900</text><line x1="270.00" y1="112" x2="270.00" y2="232" stroke="#cbd5e1" /><text x="494.00" y="217" class="cell" fill="#314155" style="fill:#314155 !important;">250</text><line x1="480.00" y1="112" x2="480.00" y2="232" stroke="#cbd5e1" /><text x="886.00" y="217" class="cell" text-anchor="end" fill="#314155" style="fill:#314155 !important;">5</text><line x1="690.00" y1="112" x2="690.00" y2="232" stroke="#cbd5e1" /><rect x="60" y="232" width="840" height="40" fill="#ffffff" /><text x="74.00" y="257" class="cell" fill="#314155" style="fill:#314155 !important;">Scale</text><line x1="60.00" y1="112" x2="60.00" y2="272" stroke="#cbd5e1" /><text x="466.00" y="257" class="cell" text-anchor="end" fill="#314155" style="fill:#314155 !important;">59,000</text><line x1="270.00" y1="112" x2="270.00" y2="272" stroke="#cbd5e1" /><text x="494.00" y="257" class="cell" fill="#314155" style="fill:#314155 !important;">Unlimited</text><line x1="480.00" y1="112" x2="480.00" y2="272" stroke="#cbd5e1" /><text x="886.00" y="257" class="cell" text-anchor="end" fill="#314155" style="fill:#314155 !important;">20</text><line x1="690.00" y1="112" x2="690.00" y2="272" stroke="#cbd5e1" /><line x1="900.00" y1="112" x2="900.00" y2="272" stroke="#cbd5e1" /><text x="900" y="318" class="source" text-anchor="end" opacity="0.78" fill="#64748b" style="fill:#64748b !important;">Source: Accessibility review</text></g></svg>