<svg xmlns="http://www.w3.org/2000/svg" width="960" height="398" viewBox="0 0 960 398" fill="none"><style>.cg-root .title{font:700 32px 'Space Grotesk', 'Pretendard', 'Apple SD Gothic Neo', sans-serif; fill:#211814; letter-spacing:-0.03em;}.cg-root .subtitle{font:500 18px 'IBM Plex Sans KR', 'Pretendard', 'Apple SD Gothic Neo', sans-serif; fill:#5b4638;}.cg-root .label,.cg-root .axis,.cg-root .header,.cg-root .cell{font:650 16px 'IBM Plex Sans KR', 'Pretendard', 'Apple SD Gothic Neo', sans-serif; fill:#5b4638;}.cg-root .value{font:700 16px 'IBM Plex Sans KR', 'Pretendard', 'Apple SD Gothic Neo', sans-serif; fill:#211814;}.cg-root .header{font-weight:700; fill:#211814;}.cg-root .tick{font:500 14px 'IBM Plex Sans KR', 'Pretendard', 'Apple SD Gothic Neo', sans-serif; fill:#8d7260;}.cg-root .source{font:500 14px 'IBM Plex Sans KR', 'Pretendard', 'Apple SD Gothic Neo', sans-serif; fill:#8d7260; letter-spacing:0.01em;}.cg-root .stat{font:800 72px 'Space Grotesk', 'Pretendard', 'Apple SD Gothic Neo', sans-serif; fill:#211814; letter-spacing:-0.04em;}</style><rect x="0" y="0" width="960" height="398" fill="#fff7ee" /><g class="cg-root"><text x="60" y="52" class="title" fill="#211814" style="fill:#211814 !important;">어떤 채널이 다음 분기 성장을 주도할까?</text><text x="60" y="82" class="subtitle" fill="#5b4638" style="fill:#5b4638 !important;">단위: pt</text><rect x="260" y="106" width="520" height="192" fill="#f4eadb" rx="16" /><text x="244" y="150" class="label" text-anchor="end" fill="#5b4638" style="fill:#5b4638 !important;">Organic SEO</text><rect x="260" y="134" width="520.00" height="20" rx="10" fill="url(#cg-pattern-bar-horizontal-0)" stroke="#8b5cf6" stroke-width="2.8" /><text x="900" y="150" class="value" text-anchor="end" fill="#211814" style="fill:#211814 !important;">420pt</text><text x="244" y="198" class="label" text-anchor="end" fill="#5b4638" style="fill:#5b4638 !important;">Influencers</text><rect x="260" y="182" width="334.29" height="20" rx="10" fill="url(#cg-pattern-bar-horizontal-1)" stroke="#8b5cf6" stroke-width="2.8" /><text x="900" y="198" class="value" text-anchor="end" fill="#211814" style="fill:#211814 !important;">270pt</text><text x="244" y="246" class="label" text-anchor="end" fill="#5b4638" style="fill:#5b4638 !important;">Newsletters</text><rect x="260" y="230" width="222.86" height="20" rx="10" fill="url(#cg-pattern-bar-horizontal-2)" stroke="#8b5cf6" stroke-width="2.8" /><text x="900" y="246" class="value" text-anchor="end" fill="#211814" style="fill:#211814 !important;">180pt</text><text x="244" y="294" class="label" text-anchor="end" fill="#5b4638" style="fill:#5b4638 !important;">Enterprise</text><rect x="260" y="278" width="160.95" height="20" rx="10" fill="url(#cg-pattern-bar-horizontal-3)" stroke="#8b5cf6" stroke-width="2.8" /><text x="900" y="294" class="value" text-anchor="end" fill="#211814" style="fill:#211814 !important;">130pt</text><defs><pattern id="cg-pattern-bar-horizontal-0" patternUnits="userSpaceOnUse" width="21.00" height="21.00"><path d="M -10.50 10.50 L 10.50 -10.50 M 0 21.00 L 21.00 0 M 10.50 31.50 L 31.50 10.50" stroke="#8b5cf6" stroke-width="1.45" stroke-opacity="0.74" /></pattern><pattern id="cg-pattern-bar-horizontal-1" patternUnits="userSpaceOnUse" width="21.00" height="21.00"><path d="M -10.50 10.50 L 10.50 -10.50 M 0 21.00 L 21.00 0 M 10.50 31.50 L 31.50 10.50" stroke="#8b5cf6" stroke-width="1.45" stroke-opacity="0.74" /></pattern><pattern id="cg-pattern-bar-horizontal-2" patternUnits="userSpaceOnUse" width="21.00" height="21.00"><path d="M -10.50 10.50 L 10.50 -10.50 M 0 21.00 L 21.00 0 M 10.50 31.50 L 31.50 10.50" stroke="#8b5cf6" stroke-width="1.45" stroke-opacity="0.74" /></pattern><pattern id="cg-pattern-bar-horizontal-3" patternUnits="userSpaceOnUse" width="21.00" height="21.00"><path d="M -10.50 10.50 L 10.50 -10.50 M 0 21.00 L 21.00 0 M 10.50 31.50 L 31.50 10.50" stroke="#8b5cf6" stroke-width="1.45" stroke-opacity="0.74" /></pattern></defs><text x="60" y="374" class="source" opacity="0.84" fill="#8d7260" style="fill:#8d7260 !important;">Source: Theme gallery benchmark</text></g></svg>