<svg xmlns="http://www.w3.org/2000/svg" width="960" height="398" viewBox="0 0 960 398" fill="none"><style>.cg-root .title{font:700 28px 'Space Grotesk', 'Pretendard', 'Apple SD Gothic Neo', sans-serif; fill:#111827; letter-spacing:-0.03em;}.cg-root .subtitle{font:500 18px 'IBM Plex Mono', 'JetBrains Mono', monospace; fill:#243243;}.cg-root .label,.cg-root .axis,.cg-root .header,.cg-root .cell{font:600 16px 'IBM Plex Mono', 'JetBrains Mono', monospace; fill:#243243;}.cg-root .value{font:700 16px 'IBM Plex Mono', 'JetBrains Mono', monospace; fill:#111827;}.cg-root .header{font-weight:700; fill:#111827;}.cg-root .tick{font:500 14px 'IBM Plex Mono', 'JetBrains Mono', monospace; fill:#526070;}.cg-root .source{font:500 14px 'IBM Plex Mono', 'JetBrains Mono', monospace; fill:#526070; letter-spacing:0.01em;}.cg-root .stat{font:800 72px 'Space Grotesk', 'Pretendard', 'Apple SD Gothic Neo', sans-serif; fill:#111827; letter-spacing:-0.04em;}</style><rect x="0" y="0" width="960" height="398" fill="#eff4f7" /><g class="cg-root"><text x="60" y="52" class="title" fill="#111827" style="fill:#111827 !important;">어떤 채널이 다음 분기 성장을 주도할까?</text><text x="60" y="82" class="subtitle" fill="#243243" style="fill:#243243 !important;">label value list normalized dataset · unit: pt</text><rect x="260" y="106" width="520" height="192" fill="#eef4f8" rx="16" /><text x="244" y="150" class="label" text-anchor="end" fill="#243243" style="fill:#243243 !important;">Organic SEO</text><rect x="260" y="134" width="520.00" height="20" rx="10" fill="url(#cg-pattern-bar-horizontal-0)" stroke="#2563eb" stroke-width="2.2" /><text x="900" y="150" class="value" text-anchor="end" fill="#111827" style="fill:#111827 !important;">420pt</text><text x="244" y="198" class="label" text-anchor="end" fill="#243243" style="fill:#243243 !important;">Influencers</text><rect x="260" y="182" width="334.29" height="20" rx="10" fill="url(#cg-pattern-bar-horizontal-1)" stroke="#2563eb" stroke-width="2.2" /><text x="900" y="198" class="value" text-anchor="end" fill="#111827" style="fill:#111827 !important;">270pt</text><text x="244" y="246" class="label" text-anchor="end" fill="#243243" style="fill:#243243 !important;">Newsletters</text><rect x="260" y="230" width="222.86" height="20" rx="10" fill="url(#cg-pattern-bar-horizontal-2)" stroke="#2563eb" stroke-width="2.2" /><text x="900" y="246" class="value" text-anchor="end" fill="#111827" style="fill:#111827 !important;">180pt</text><text x="244" y="294" class="label" text-anchor="end" fill="#243243" style="fill:#243243 !important;">Enterprise</text><rect x="260" y="278" width="160.95" height="20" rx="10" fill="url(#cg-pattern-bar-horizontal-3)" stroke="#2563eb" stroke-width="2.2" /><text x="900" y="294" class="value" text-anchor="end" fill="#111827" style="fill:#111827 !important;">130pt</text><defs><pattern id="cg-pattern-bar-horizontal-0" patternUnits="userSpaceOnUse" width="7.00" height="7.00"><path d="M -3.50 3.50 L 3.50 -3.50 M 0 7.00 L 7.00 0 M 3.50 10.50 L 10.50 3.50" stroke="#2563eb" stroke-width="1.1" stroke-opacity="0.5800000000000001" /></pattern><pattern id="cg-pattern-bar-horizontal-1" patternUnits="userSpaceOnUse" width="7.00" height="7.00"><path d="M -3.50 3.50 L 3.50 -3.50 M 0 7.00 L 7.00 0 M 3.50 10.50 L 10.50 3.50" stroke="#2563eb" stroke-width="1.1" stroke-opacity="0.5800000000000001" /></pattern><pattern id="cg-pattern-bar-horizontal-2" patternUnits="userSpaceOnUse" width="7.00" height="7.00"><path d="M -3.50 3.50 L 3.50 -3.50 M 0 7.00 L 7.00 0 M 3.50 10.50 L 10.50 3.50" stroke="#2563eb" stroke-width="1.1" stroke-opacity="0.5800000000000001" /></pattern><pattern id="cg-pattern-bar-horizontal-3" patternUnits="userSpaceOnUse" width="7.00" height="7.00"><path d="M -3.50 3.50 L 3.50 -3.50 M 0 7.00 L 7.00 0 M 3.50 10.50 L 10.50 3.50" stroke="#2563eb" stroke-width="1.1" stroke-opacity="0.5800000000000001" /></pattern></defs><text x="900" y="374" class="source" text-anchor="end" opacity="0.72" fill="#526070" style="fill:#526070 !important;">Source: Theme gallery benchmark</text></g></svg>