<svg xmlns="http://www.w3.org/2000/svg" width="960" height="560" viewBox="0 0 960 560" fill="none"><style>.cg-root .title{font:700 30px 'Space Grotesk', 'Pretendard', 'Apple SD Gothic Neo', sans-serif; fill:#2a1d16; letter-spacing:-0.03em;}.cg-root .subtitle{font:500 18px 'IBM Plex Sans KR', 'Pretendard', 'Apple SD Gothic Neo', sans-serif; fill:#5f463c;}.cg-root .label,.cg-root .axis,.cg-root .header,.cg-root .cell{font:650 16px 'IBM Plex Sans KR', 'Pretendard', 'Apple SD Gothic Neo', sans-serif; fill:#5f463c;}.cg-root .value{font:700 16px 'IBM Plex Sans KR', 'Pretendard', 'Apple SD Gothic Neo', sans-serif; fill:#2a1d16;}.cg-root .header{font-weight:700; fill:#2a1d16;}.cg-root .tick{font:500 14px 'IBM Plex Sans KR', 'Pretendard', 'Apple SD Gothic Neo', sans-serif; fill:#8a6f63;}.cg-root .source{font:500 14px 'IBM Plex Sans KR', 'Pretendard', 'Apple SD Gothic Neo', sans-serif; fill:#8a6f63; letter-spacing:0.01em;}.cg-root .stat{font:800 72px 'Space Grotesk', 'Pretendard', 'Apple SD Gothic Neo', sans-serif; fill:#2a1d16; letter-spacing:-0.04em;}</style><rect x="0" y="0" width="960" height="560" fill="#fff6ea" /><g class="cg-root"><text x="60" y="52" class="title" fill="#2a1d16" style="fill:#2a1d16 !important;">색맹 접근성을 위해 지역별 실적을 세로 막대로 비교하라</text><text x="60" y="82" class="subtitle" fill="#5f463c" style="fill:#5f463c !important;">단위: 억</text><line x1="80" y1="298.00" x2="920" y2="298.00" stroke="#d8cfc4" stroke-width="1" stroke-opacity="0.2" /><line x1="80" y1="470" x2="920" y2="470" stroke="#baa78f" stroke-width="2" /><line x1="80" y1="126" x2="80" y2="470" stroke="#baa78f" stroke-width="2" /><rect x="153.00" y="126.00" width="64.00" height="344.00" fill="url(#cg-pattern-bar-0)" rx="14" /><text x="185.00" y="494" class="tick" text-anchor="middle" fill="#8a6f63" style="fill:#8a6f63 !important;">US</text><rect x="363.00" y="183.33" width="64.00" height="286.67" fill="url(#cg-pattern-bar-1)" rx="14" /><text x="395.00" y="494" class="tick" text-anchor="middle" fill="#8a6f63" style="fill:#8a6f63 !important;">EU</text><rect x="573.00" y="212.00" width="64.00" height="258.00" fill="url(#cg-pattern-bar-2)" rx="14" /><text x="605.00" y="494" class="tick" text-anchor="middle" fill="#8a6f63" style="fill:#8a6f63 !important;">KR</text><rect x="783.00" y="283.67" width="64.00" height="186.33" fill="url(#cg-pattern-bar-3)" rx="14" /><text x="815.00" y="494" class="tick" text-anchor="middle" fill="#8a6f63" style="fill:#8a6f63 !important;">JP</text><defs><pattern id="cg-pattern-bar-0" patternUnits="userSpaceOnUse" width="22.00" height="22.00"><rect x="0" y="0" width="22.00" height="22.00" fill="#7c3aed" /><circle cx="3.96" cy="4.84" r="2.53" fill="#fff6ea" fill-opacity="0.168" /><circle cx="9.24" cy="5.72" r="4.36" fill="#fff6ea" fill-opacity="0.288" /><circle cx="15.40" cy="7.48" r="6.76" fill="#fff6ea" fill-opacity="0.400" /><circle cx="12.76" cy="14.52" r="3.80" fill="#fff6ea" fill-opacity="0.248" /><circle cx="5.28" cy="17.16" r="1.90" fill="#fff6ea" fill-opacity="0.136" /></pattern><pattern id="cg-pattern-bar-1" patternUnits="userSpaceOnUse" width="22.00" height="22.00"><rect x="0" y="0" width="22.00" height="22.00" fill="#7c3aed" /><circle cx="3.96" cy="4.84" r="2.53" fill="#fff6ea" fill-opacity="0.168" /><circle cx="9.24" cy="5.72" r="4.36" fill="#fff6ea" fill-opacity="0.288" /><circle cx="15.40" cy="7.48" r="6.76" fill="#fff6ea" fill-opacity="0.400" /><circle cx="12.76" cy="14.52" r="3.80" fill="#fff6ea" fill-opacity="0.248" /><circle cx="5.28" cy="17.16" r="1.90" fill="#fff6ea" fill-opacity="0.136" /></pattern><pattern id="cg-pattern-bar-2" patternUnits="userSpaceOnUse" width="22.00" height="22.00"><rect x="0" y="0" width="22.00" height="22.00" fill="#7c3aed" /><circle cx="3.96" cy="4.84" r="2.53" fill="#fff6ea" fill-opacity="0.168" /><circle cx="9.24" cy="5.72" r="4.36" fill="#fff6ea" fill-opacity="0.288" /><circle cx="15.40" cy="7.48" r="6.76" fill="#fff6ea" fill-opacity="0.400" /><circle cx="12.76" cy="14.52" r="3.80" fill="#fff6ea" fill-opacity="0.248" /><circle cx="5.28" cy="17.16" r="1.90" fill="#fff6ea" fill-opacity="0.136" /></pattern><pattern id="cg-pattern-bar-3" patternUnits="userSpaceOnUse" width="22.00" height="22.00"><rect x="0" y="0" width="22.00" height="22.00" fill="#7c3aed" /><circle cx="3.96" cy="4.84" r="2.53" fill="#fff6ea" fill-opacity="0.168" /><circle cx="9.24" cy="5.72" r="4.36" fill="#fff6ea" fill-opacity="0.288" /><circle cx="15.40" cy="7.48" r="6.76" fill="#fff6ea" fill-opacity="0.400" /><circle cx="12.76" cy="14.52" r="3.80" fill="#fff6ea" fill-opacity="0.248" /><circle cx="5.28" cy="17.16" r="1.90" fill="#fff6ea" fill-opacity="0.136" /></pattern></defs><text x="60" y="536" class="source" opacity="0.8" fill="#8a6f63" style="fill:#8a6f63 !important;">Source: Accessibility review</text></g></svg>