<svg xmlns="http://www.w3.org/2000/svg" width="960" height="398" viewBox="0 0 960 398" fill="none"><style>.cg-root .title{font:700 30px 'Space Grotesk', 'Pretendard', 'Apple SD Gothic Neo', sans-serif; fill:#2a1d16; letter-spacing:-0.03em;}.cg-root .subtitle{font:500 18px 'IBM Plex Sans KR', 'Pretendard', 'Apple SD Gothic Neo', sans-serif; fill:#5f463c;}.cg-root .label,.cg-root .axis,.cg-root .header,.cg-root .cell{font:650 16px 'IBM Plex Sans KR', 'Pretendard', 'Apple SD Gothic Neo', sans-serif; fill:#5f463c;}.cg-root .value{font:700 16px 'IBM Plex Sans KR', 'Pretendard', 'Apple SD Gothic Neo', sans-serif; fill:#2a1d16;}.cg-root .header{font-weight:700; fill:#2a1d16;}.cg-root .tick{font:500 14px 'IBM Plex Sans KR', 'Pretendard', 'Apple SD Gothic Neo', sans-serif; fill:#8a6f63;}.cg-root .source{font:500 14px 'IBM Plex Sans KR', 'Pretendard', 'Apple SD Gothic Neo', sans-serif; fill:#8a6f63; letter-spacing:0.01em;}.cg-root .stat{font:800 72px 'Space Grotesk', 'Pretendard', 'Apple SD Gothic Neo', sans-serif; fill:#2a1d16; letter-spacing:-0.04em;}</style><rect x="0" y="0" width="960" height="398" fill="#fff6ea" /><g class="cg-root"><text x="60" y="52" class="title" fill="#2a1d16" style="fill:#2a1d16 !important;">색맹 접근성을 위해 점무늬 패턴으로 채널을 비교하라</text><text x="60" y="82" class="subtitle" fill="#5f463c" style="fill:#5f463c !important;">단위: pt</text><rect x="260" y="106" width="520" height="192" fill="#fff8ef" rx="16" /><text x="244" y="150" class="label" text-anchor="end" fill="#5f463c" style="fill:#5f463c !important;">Organic Search</text><rect x="260" y="134" width="520.00" height="20" rx="10" fill="url(#cg-pattern-bar-horizontal-0)" /><text x="900" y="150" class="value" text-anchor="end" fill="#2a1d16" style="fill:#2a1d16 !important;">42pt</text><text x="244" y="198" class="label" text-anchor="end" fill="#5f463c" style="fill:#5f463c !important;">Enterprise...</text><rect x="260" y="182" width="383.81" height="20" rx="10" fill="url(#cg-pattern-bar-horizontal-1)" /><text x="900" y="198" class="value" text-anchor="end" fill="#2a1d16" style="fill:#2a1d16 !important;">31pt</text><text x="244" y="246" class="label" text-anchor="end" fill="#5f463c" style="fill:#5f463c !important;">Lifecycle E...</text><rect x="260" y="230" width="260.00" height="20" rx="10" fill="url(#cg-pattern-bar-horizontal-2)" /><text x="900" y="246" class="value" text-anchor="end" fill="#2a1d16" style="fill:#2a1d16 !important;">21pt</text><text x="244" y="294" class="label" text-anchor="end" fill="#5f463c" style="fill:#5f463c !important;">Partner Net...</text><rect x="260" y="278" width="173.33" height="20" rx="10" fill="url(#cg-pattern-bar-horizontal-3)" /><text x="900" y="294" class="value" text-anchor="end" fill="#2a1d16" style="fill:#2a1d16 !important;">14pt</text><defs><pattern id="cg-pattern-bar-horizontal-0" patternUnits="userSpaceOnUse" width="22.00" height="22.00"><rect x="0" y="0" width="22.00" height="22.00" fill="#7c3aed" /><circle cx="3.96" cy="4.84" r="2.53" fill="#fff6ea" fill-opacity="0.168" /><circle cx="9.24" cy="5.72" r="4.36" fill="#fff6ea" fill-opacity="0.288" /><circle cx="15.40" cy="7.48" r="6.76" fill="#fff6ea" fill-opacity="0.400" /><circle cx="12.76" cy="14.52" r="3.80" fill="#fff6ea" fill-opacity="0.248" /><circle cx="5.28" cy="17.16" r="1.90" fill="#fff6ea" fill-opacity="0.136" /></pattern><pattern id="cg-pattern-bar-horizontal-1" patternUnits="userSpaceOnUse" width="22.00" height="22.00"><rect x="0" y="0" width="22.00" height="22.00" fill="#7c3aed" /><circle cx="3.96" cy="4.84" r="2.53" fill="#fff6ea" fill-opacity="0.168" /><circle cx="9.24" cy="5.72" r="4.36" fill="#fff6ea" fill-opacity="0.288" /><circle cx="15.40" cy="7.48" r="6.76" fill="#fff6ea" fill-opacity="0.400" /><circle cx="12.76" cy="14.52" r="3.80" fill="#fff6ea" fill-opacity="0.248" /><circle cx="5.28" cy="17.16" r="1.90" fill="#fff6ea" fill-opacity="0.136" /></pattern><pattern id="cg-pattern-bar-horizontal-2" patternUnits="userSpaceOnUse" width="22.00" height="22.00"><rect x="0" y="0" width="22.00" height="22.00" fill="#7c3aed" /><circle cx="3.96" cy="4.84" r="2.53" fill="#fff6ea" fill-opacity="0.168" /><circle cx="9.24" cy="5.72" r="4.36" fill="#fff6ea" fill-opacity="0.288" /><circle cx="15.40" cy="7.48" r="6.76" fill="#fff6ea" fill-opacity="0.400" /><circle cx="12.76" cy="14.52" r="3.80" fill="#fff6ea" fill-opacity="0.248" /><circle cx="5.28" cy="17.16" r="1.90" fill="#fff6ea" fill-opacity="0.136" /></pattern><pattern id="cg-pattern-bar-horizontal-3" patternUnits="userSpaceOnUse" width="22.00" height="22.00"><rect x="0" y="0" width="22.00" height="22.00" fill="#7c3aed" /><circle cx="3.96" cy="4.84" r="2.53" fill="#fff6ea" fill-opacity="0.168" /><circle cx="9.24" cy="5.72" r="4.36" fill="#fff6ea" fill-opacity="0.288" /><circle cx="15.40" cy="7.48" r="6.76" fill="#fff6ea" fill-opacity="0.400" /><circle cx="12.76" cy="14.52" r="3.80" fill="#fff6ea" fill-opacity="0.248" /><circle cx="5.28" cy="17.16" r="1.90" fill="#fff6ea" fill-opacity="0.136" /></pattern></defs><text x="60" y="374" class="source" opacity="0.8" fill="#8a6f63" style="fill:#8a6f63 !important;">Source: Accessibility review</text></g></svg>