<svg xmlns="http://www.w3.org/2000/svg" width="960" height="342" viewBox="0 0 960 342" fill="none"><style>.cg-root .title{font:700 30px 'Space Grotesk', 'Pretendard', 'Apple SD Gothic Neo', sans-serif; fill:#241c16; letter-spacing:-0.03em;}.cg-root .subtitle{font:500 18px 'IBM Plex Sans KR', 'Pretendard', 'Apple SD Gothic Neo', sans-serif; fill:#5a483c;}.cg-root .label,.cg-root .axis,.cg-root .header,.cg-root .cell{font:650 16px 'IBM Plex Sans KR', 'Pretendard', 'Apple SD Gothic Neo', sans-serif; fill:#5a483c;}.cg-root .value{font:700 16px 'IBM Plex Sans KR', 'Pretendard', 'Apple SD Gothic Neo', sans-serif; fill:#241c16;}.cg-root .header{font-weight:700; fill:#241c16;}.cg-root .tick{font:500 14px 'IBM Plex Sans KR', 'Pretendard', 'Apple SD Gothic Neo', sans-serif; fill:#8a7464;}.cg-root .source{font:500 14px 'IBM Plex Sans KR', 'Pretendard', 'Apple SD Gothic Neo', sans-serif; fill:#8a7464; letter-spacing:0.01em;}.cg-root .stat{font:800 72px 'Space Grotesk', 'Pretendard', 'Apple SD Gothic Neo', sans-serif; fill:#241c16; letter-spacing:-0.04em;}</style><rect x="0" y="0" width="960" height="342" fill="#f8efe3" /><g class="cg-root"><text x="60" y="50" class="title" fill="#241c16" style="fill:#241c16 !important;">접근성 세트에서도 플랜 비교표를 유지하라</text><rect x="60" y="112" width="840" height="40" fill="#eadcc8" rx="12" /><text x="74.00" y="137" class="header" fill="#241c16" style="fill:#241c16 !important;">플랜</text><text x="466.00" y="137" class="header" text-anchor="end" fill="#241c16" style="fill:#241c16 !important;">월 요금</text><text x="494.00" y="137" class="header" fill="#241c16" style="fill:#241c16 !important;">AI 크레딧</text><text x="886.00" y="137" class="header" text-anchor="end" fill="#241c16" style="fill:#241c16 !important;">협업 좌석</text><rect x="60" y="152" width="840" height="40" fill="#fff8f0" /><text x="74.00" y="177" class="cell" fill="#5a483c" style="fill:#5a483c !important;">Starter</text><line x1="60.00" y1="112" x2="60.00" y2="192" stroke="#d8cfc4" /><text x="466.00" y="177" class="cell" text-anchor="end" fill="#5a483c" style="fill:#5a483c !important;">9,900</text><line x1="270.00" y1="112" x2="270.00" y2="192" stroke="#d8cfc4" /><text x="494.00" y="177" class="cell" fill="#5a483c" style="fill:#5a483c !important;">50</text><line x1="480.00" y1="112" x2="480.00" y2="192" stroke="#d8cfc4" /><text x="886.00" y="177" class="cell" text-anchor="end" fill="#5a483c" style="fill:#5a483c !important;">1</text><line x1="690.00" y1="112" x2="690.00" y2="192" stroke="#d8cfc4" /><rect x="60" y="192" width="840" height="40" fill="#f2e6d4" /><text x="74.00" y="217" class="cell" fill="#5a483c" style="fill:#5a483c !important;">Pro</text><line x1="60.00" y1="112" x2="60.00" y2="232" stroke="#d8cfc4" /><text x="466.00" y="217" class="cell" text-anchor="end" fill="#5a483c" style="fill:#5a483c !important;">24,900</text><line x1="270.00" y1="112" x2="270.00" y2="232" stroke="#d8cfc4" /><text x="494.00" y="217" class="cell" fill="#5a483c" style="fill:#5a483c !important;">250</text><line x1="480.00" y1="112" x2="480.00" y2="232" stroke="#d8cfc4" /><text x="886.00" y="217" class="cell" text-anchor="end" fill="#5a483c" style="fill:#5a483c !important;">5</text><line x1="690.00" y1="112" x2="690.00" y2="232" stroke="#d8cfc4" /><rect x="60" y="232" width="840" height="40" fill="#fff8f0" /><text x="74.00" y="257" class="cell" fill="#5a483c" style="fill:#5a483c !important;">Scale</text><line x1="60.00" y1="112" x2="60.00" y2="272" stroke="#d8cfc4" /><text x="466.00" y="257" class="cell" text-anchor="end" fill="#5a483c" style="fill:#5a483c !important;">59,000</text><line x1="270.00" y1="112" x2="270.00" y2="272" stroke="#d8cfc4" /><text x="494.00" y="257" class="cell" fill="#5a483c" style="fill:#5a483c !important;">Unlimited</text><line x1="480.00" y1="112" x2="480.00" y2="272" stroke="#d8cfc4" /><text x="886.00" y="257" class="cell" text-anchor="end" fill="#5a483c" style="fill:#5a483c !important;">20</text><line x1="690.00" y1="112" x2="690.00" y2="272" stroke="#d8cfc4" /><line x1="900.00" y1="112" x2="900.00" y2="272" stroke="#d8cfc4" /><text x="60" y="318" class="source" opacity="0.82" fill="#8a7464" style="fill:#8a7464 !important;">Source: Accessibility review</text></g></svg>