<svg xmlns="http://www.w3.org/2000/svg" width="960" height="560" viewBox="0 0 960 560" fill="none"><style>.cg-root .title{font:700 30px 'Space Grotesk', 'Pretendard', 'Apple SD Gothic Neo', sans-serif; fill:#2a2420; letter-spacing:-0.03em;}.cg-root .subtitle{font:500 18px 'Space Grotesk', 'Pretendard', 'Apple SD Gothic Neo', sans-serif; fill:#5a4e48;}.cg-root .label,.cg-root .axis,.cg-root .header,.cg-root .cell{font:500 16px 'Space Grotesk', 'Pretendard', 'Apple SD Gothic Neo', sans-serif; fill:#5a4e48;}.cg-root .value{font:700 16px 'Space Grotesk', 'Pretendard', 'Apple SD Gothic Neo', sans-serif; fill:#2a2420;}.cg-root .header{font-weight:700; fill:#2a2420;}.cg-root .tick{font:500 14px 'Space Grotesk', 'Pretendard', 'Apple SD Gothic Neo', sans-serif; fill:#8a7d75;}.cg-root .source{font:500 14px 'Space Grotesk', 'Pretendard', 'Apple SD Gothic Neo', sans-serif; fill:#8a7d75; letter-spacing:0.01em;}.cg-root .stat{font:800 72px 'Space Grotesk', 'Pretendard', 'Apple SD Gothic Neo', sans-serif; fill:#2a2420; letter-spacing:-0.04em;}</style><defs><filter id="cg-clay-shadow" x="-25%" y="-25%" width="150%" height="150%"><feGaussianBlur in="SourceAlpha" stdDeviation="5" /><feOffset dx="0" dy="6" /><feComponentTransfer><feFuncA type="linear" slope="0.32" /></feComponentTransfer><feMerge><feMergeNode /><feMergeNode in="SourceGraphic" /></feMerge></filter><filter id="cg-clay-soft" x="-15%" y="-15%" width="130%" height="130%"><feGaussianBlur in="SourceAlpha" stdDeviation="2.5" /><feOffset dx="0" dy="3" /><feComponentTransfer><feFuncA type="linear" slope="0.38" /></feComponentTransfer><feMerge><feMergeNode /><feMergeNode in="SourceGraphic" /></feMerge></filter><filter id="cg-clay-blur" x="-50%" y="-50%" width="200%" height="200%"><feGaussianBlur stdDeviation="4" /></filter><filter id="cg-clay-blur-tight" x="-50%" y="-50%" width="200%" height="200%"><feGaussianBlur stdDeviation="2" /></filter><linearGradient id="cg-clay-sheen" x1="0%" y1="0%" x2="0%" y2="100%"><stop offset="0%" stop-color="#ffffff" stop-opacity="0.55" /><stop offset="45%" stop-color="#ffffff" stop-opacity="0.0" /></linearGradient><linearGradient id="cg-clay-ao" x1="0%" y1="0%" x2="0%" y2="100%"><stop offset="0%" stop-color="#1a1512" stop-opacity="0" /><stop offset="100%" stop-color="#1a1512" stop-opacity="0.32" /></linearGradient><linearGradient id="cg-clay-floor" x1="0%" y1="0%" x2="0%" y2="100%"><stop offset="0%" stop-color="#1a1512" stop-opacity="0" /><stop offset="100%" stop-color="#1a1512" stop-opacity="0.14" /></linearGradient><radialGradient id="cg-clay-grad-8b5a9f" cx="30%" cy="22%" r="95%" fx="25%" fy="18%"><stop offset="0%" stop-color="#b08fbe" /><stop offset="55%" stop-color="#8b5a9f" /><stop offset="100%" stop-color="#6c467c" /></radialGradient><radialGradient id="cg-clay-grad-d47a8e" cx="30%" cy="22%" r="95%" fx="25%" fy="18%"><stop offset="0%" stop-color="#e2a5b2" /><stop offset="55%" stop-color="#d47a8e" /><stop offset="100%" stop-color="#a55f6f" /></radialGradient><radialGradient id="cg-clay-grad-b85a7a" cx="30%" cy="22%" r="95%" fx="25%" fy="18%"><stop offset="0%" stop-color="#cf8fa5" /><stop offset="55%" stop-color="#b85a7a" /><stop offset="100%" stop-color="#90465f" /></radialGradient><radialGradient id="cg-clay-grad-6fa877" cx="30%" cy="22%" r="95%" fx="25%" fy="18%"><stop offset="0%" stop-color="#9dc4a3" /><stop offset="55%" stop-color="#6fa877" /><stop offset="100%" stop-color="#57835d" /></radialGradient><radialGradient id="cg-clay-grad-d16a6a" cx="30%" cy="22%" r="95%" fx="25%" fy="18%"><stop offset="0%" stop-color="#e09a9a" /><stop offset="55%" stop-color="#d16a6a" /><stop offset="100%" stop-color="#a35353" /></radialGradient><radialGradient id="cg-clay-grad-a89a92" cx="30%" cy="22%" r="95%" fx="25%" fy="18%"><stop offset="0%" stop-color="#c4bab5" /><stop offset="55%" stop-color="#a89a92" /><stop offset="100%" stop-color="#837872" /></radialGradient><radialGradient id="cg-clay-grad-a4d4b8" cx="30%" cy="22%" r="95%" fx="25%" fy="18%"><stop offset="0%" stop-color="#c1e2cf" /><stop offset="55%" stop-color="#a4d4b8" /><stop offset="100%" stop-color="#80a590" /></radialGradient><radialGradient id="cg-clay-grad-e69b80" cx="30%" cy="22%" r="95%" fx="25%" fy="18%"><stop offset="0%" stop-color="#eebba9" /><stop offset="55%" stop-color="#e69b80" /><stop offset="100%" stop-color="#b37964" /></radialGradient><radialGradient id="cg-clay-grad-7bb7a5" cx="30%" cy="22%" r="95%" fx="25%" fy="18%"><stop offset="0%" stop-color="#a5cec2" /><stop offset="55%" stop-color="#7bb7a5" /><stop offset="100%" stop-color="#608f81" /></radialGradient><radialGradient id="cg-clay-grad-d87a7a" cx="30%" cy="22%" r="95%" fx="25%" fy="18%"><stop offset="0%" stop-color="#e4a5a5" /><stop offset="55%" stop-color="#d87a7a" /><stop offset="100%" stop-color="#a85f5f" /></radialGradient><radialGradient id="cg-clay-grad-f2c57c" cx="30%" cy="22%" r="95%" fx="25%" fy="18%"><stop offset="0%" stop-color="#f6d8a6" /><stop offset="55%" stop-color="#f2c57c" /><stop offset="100%" stop-color="#bd9a61" /></radialGradient><radialGradient id="cg-clay-grad-a4c8e8" cx="30%" cy="22%" r="95%" fx="25%" fy="18%"><stop offset="0%" stop-color="#c1daef" /><stop offset="55%" stop-color="#a4c8e8" /><stop offset="100%" stop-color="#809cb5" /></radialGradient></defs><rect x="0" y="0" width="960" height="560" fill="#bce5cf" /><rect x="0" y="308" width="960" height="252" fill="url(#cg-clay-floor)" pointer-events="none" /><g class="cg-root"><text x="60" y="52" class="title" fill="#2a2420" style="fill:#2a2420 !important;">Top growth channels</text><text x="60" y="82" class="subtitle" fill="#5a4e48" style="fill:#5a4e48 !important;">단위: pt</text><line x1="80" y1="194.80" x2="920" y2="194.80" stroke="#a4d4b8" stroke-width="1.25" stroke-opacity="0.35" /><line x1="80" y1="263.60" x2="920" y2="263.60" stroke="#a4d4b8" stroke-width="1.25" stroke-opacity="0.35" /><line x1="80" y1="332.40" x2="920" y2="332.40" stroke="#a4d4b8" stroke-width="1.25" stroke-opacity="0.35" /><line x1="80" y1="401.20" x2="920" y2="401.20" stroke="#a4d4b8" stroke-width="1.25" stroke-opacity="0.35" /><line x1="80" y1="470" x2="920" y2="470" stroke="#7fb998" stroke-width="2" /><line x1="80" y1="126" x2="80" y2="470" stroke="#7fb998" stroke-width="2" /><ellipse cx="164.00" cy="477.58" rx="35.84" ry="7.04" fill="#0f0b08" fill-opacity="0.22" filter="url(#cg-clay-blur-tight)" /><rect x="132.00" y="126.00" width="64.00" height="344.00" fill="url(#cg-clay-grad-8b5a9f)" rx="14.0" /><rect x="132.00" y="426.00" width="64.00" height="44.00" fill="url(#cg-clay-ao)" rx="14.0" pointer-events="none" /><ellipse cx="164.00" cy="127.65" rx="32.50" ry="11.00" fill="#724a82" opacity="0.55" /><ellipse cx="164.00" cy="126.00" rx="32.00" ry="11.00" fill="#a57eb4" /><path d="M 132.00 126.00 A 32.00 11.00 0 0 1 196.00 126.00" fill="none" stroke="#cbb5d4" stroke-width="1.6" stroke-opacity="0.85" stroke-linecap="round" /><ellipse cx="152.48" cy="159.00" rx="11.52" ry="9.00" fill="#ffffff" fill-opacity="0.55" filter="url(#cg-clay-blur-tight)" pointer-events="none" /><text x="164.00" y="494" class="tick" text-anchor="middle" fill="#8a7d75" style="fill:#8a7d75 !important;">Organic</text><ellipse cx="332.00" cy="477.58" rx="35.84" ry="7.04" fill="#0f0b08" fill-opacity="0.22" filter="url(#cg-clay-blur-tight)" /><rect x="300.00" y="216.10" width="64.00" height="253.90" fill="url(#cg-clay-grad-8b5a9f)" rx="14.0" /><rect x="300.00" y="426.00" width="64.00" height="44.00" fill="url(#cg-clay-ao)" rx="14.0" pointer-events="none" /><ellipse cx="332.00" cy="217.75" rx="32.50" ry="11.00" fill="#724a82" opacity="0.55" /><ellipse cx="332.00" cy="216.10" rx="32.00" ry="11.00" fill="#a57eb4" /><path d="M 300.00 216.10 A 32.00 11.00 0 0 1 364.00 216.10" fill="none" stroke="#cbb5d4" stroke-width="1.6" stroke-opacity="0.85" stroke-linecap="round" /><ellipse cx="320.48" cy="249.10" rx="11.52" ry="9.00" fill="#ffffff" fill-opacity="0.55" filter="url(#cg-clay-blur-tight)" pointer-events="none" /><text x="332.00" y="494" class="tick" text-anchor="middle" fill="#8a7d75" style="fill:#8a7d75 !important;">Creators</text><ellipse cx="500.00" cy="477.58" rx="35.84" ry="7.04" fill="#0f0b08" fill-opacity="0.22" filter="url(#cg-clay-blur-tight)" /><rect x="468.00" y="257.05" width="64.00" height="212.95" fill="url(#cg-clay-grad-8b5a9f)" rx="14.0" /><rect x="468.00" y="426.00" width="64.00" height="44.00" fill="url(#cg-clay-ao)" rx="14.0" pointer-events="none" /><ellipse cx="500.00" cy="258.70" rx="32.50" ry="11.00" fill="#724a82" opacity="0.55" /><ellipse cx="500.00" cy="257.05" rx="32.00" ry="11.00" fill="#a57eb4" /><path d="M 468.00 257.05 A 32.00 11.00 0 0 1 532.00 257.05" fill="none" stroke="#cbb5d4" stroke-width="1.6" stroke-opacity="0.85" stroke-linecap="round" /><ellipse cx="488.48" cy="290.05" rx="11.52" ry="9.00" fill="#ffffff" fill-opacity="0.55" filter="url(#cg-clay-blur-tight)" pointer-events="none" /><text x="500.00" y="494" class="tick" text-anchor="middle" fill="#8a7d75" style="fill:#8a7d75 !important;">Email</text><ellipse cx="668.00" cy="477.58" rx="35.84" ry="7.04" fill="#0f0b08" fill-opacity="0.22" filter="url(#cg-clay-blur-tight)" /><rect x="636.00" y="322.57" width="64.00" height="147.43" fill="url(#cg-clay-grad-8b5a9f)" rx="14.0" /><rect x="636.00" y="426.00" width="64.00" height="44.00" fill="url(#cg-clay-ao)" rx="14.0" pointer-events="none" /><ellipse cx="668.00" cy="324.22" rx="32.50" ry="11.00" fill="#724a82" opacity="0.55" /><ellipse cx="668.00" cy="322.57" rx="32.00" ry="11.00" fill="#a57eb4" /><path d="M 636.00 322.57 A 32.00 11.00 0 0 1 700.00 322.57" fill="none" stroke="#cbb5d4" stroke-width="1.6" stroke-opacity="0.85" stroke-linecap="round" /><ellipse cx="656.48" cy="355.57" rx="11.52" ry="9.00" fill="#ffffff" fill-opacity="0.55" filter="url(#cg-clay-blur-tight)" pointer-events="none" /><text x="668.00" y="494" class="tick" text-anchor="middle" fill="#8a7d75" style="fill:#8a7d75 !important;">Paid</text><ellipse cx="836.00" cy="477.58" rx="35.84" ry="7.04" fill="#0f0b08" fill-opacity="0.22" filter="url(#cg-clay-blur-tight)" /><rect x="804.00" y="359.43" width="64.00" height="110.57" fill="url(#cg-clay-grad-8b5a9f)" rx="14.0" /><rect x="804.00" y="426.00" width="64.00" height="44.00" fill="url(#cg-clay-ao)" rx="14.0" pointer-events="none" /><ellipse cx="836.00" cy="361.08" rx="32.50" ry="11.00" fill="#724a82" opacity="0.55" /><ellipse cx="836.00" cy="359.43" rx="32.00" ry="11.00" fill="#a57eb4" /><path d="M 804.00 359.43 A 32.00 11.00 0 0 1 868.00 359.43" fill="none" stroke="#cbb5d4" stroke-width="1.6" stroke-opacity="0.85" stroke-linecap="round" /><ellipse cx="824.48" cy="390.33" rx="11.52" ry="8.85" fill="#ffffff" fill-opacity="0.55" filter="url(#cg-clay-blur-tight)" pointer-events="none" /><text x="836.00" y="494" class="tick" text-anchor="middle" fill="#8a7d75" style="fill:#8a7d75 !important;">Partners</text><text x="60" y="536" class="source" opacity="0.82" fill="#8a7d75" style="fill:#8a7d75 !important;">Source: demo · clay finish</text></g></svg>