<svg xmlns="http://www.w3.org/2000/svg" width="960" height="560" viewBox="0 0 960 560" fill="none"><style>.cg-root .title{font:700 30px 'Space Grotesk', 'Pretendard', 'Apple SD Gothic Neo', sans-serif; fill:#2a2420; letter-spacing:-0.03em;}.cg-root .subtitle{font:500 18px 'Space Grotesk', 'Pretendard', 'Apple SD Gothic Neo', sans-serif; fill:#5a4e48;}.cg-root .label,.cg-root .axis,.cg-root .header,.cg-root .cell{font:500 16px 'Space Grotesk', 'Pretendard', 'Apple SD Gothic Neo', sans-serif; fill:#5a4e48;}.cg-root .value{font:700 16px 'Space Grotesk', 'Pretendard', 'Apple SD Gothic Neo', sans-serif; fill:#2a2420;}.cg-root .header{font-weight:700; fill:#2a2420;}.cg-root .tick{font:500 14px 'Space Grotesk', 'Pretendard', 'Apple SD Gothic Neo', sans-serif; fill:#8a7d75;}.cg-root .source{font:500 14px 'Space Grotesk', 'Pretendard', 'Apple SD Gothic Neo', sans-serif; fill:#8a7d75; letter-spacing:0.01em;}.cg-root .stat{font:800 72px 'Space Grotesk', 'Pretendard', 'Apple SD Gothic Neo', sans-serif; fill:#2a2420; letter-spacing:-0.04em;}</style><defs><filter id="cg-clay-shadow" x="-25%" y="-25%" width="150%" height="150%"><feGaussianBlur in="SourceAlpha" stdDeviation="5" /><feOffset dx="0" dy="6" /><feComponentTransfer><feFuncA type="linear" slope="0.32" /></feComponentTransfer><feMerge><feMergeNode /><feMergeNode in="SourceGraphic" /></feMerge></filter><filter id="cg-clay-soft" x="-15%" y="-15%" width="130%" height="130%"><feGaussianBlur in="SourceAlpha" stdDeviation="2.5" /><feOffset dx="0" dy="3" /><feComponentTransfer><feFuncA type="linear" slope="0.38" /></feComponentTransfer><feMerge><feMergeNode /><feMergeNode in="SourceGraphic" /></feMerge></filter><filter id="cg-clay-blur" x="-50%" y="-50%" width="200%" height="200%"><feGaussianBlur stdDeviation="4" /></filter><filter id="cg-clay-blur-tight" x="-50%" y="-50%" width="200%" height="200%"><feGaussianBlur stdDeviation="2" /></filter><linearGradient id="cg-clay-sheen" x1="0%" y1="0%" x2="0%" y2="100%"><stop offset="0%" stop-color="#ffffff" stop-opacity="0.55" /><stop offset="45%" stop-color="#ffffff" stop-opacity="0.0" /></linearGradient><linearGradient id="cg-clay-ao" x1="0%" y1="0%" x2="0%" y2="100%"><stop offset="0%" stop-color="#1a1512" stop-opacity="0" /><stop offset="100%" stop-color="#1a1512" stop-opacity="0.32" /></linearGradient><linearGradient id="cg-clay-floor" x1="0%" y1="0%" x2="0%" y2="100%"><stop offset="0%" stop-color="#1a1512" stop-opacity="0" /><stop offset="100%" stop-color="#1a1512" stop-opacity="0.14" /></linearGradient><radialGradient id="cg-clay-grad-8b5a9f" cx="30%" cy="22%" r="95%" fx="25%" fy="18%"><stop offset="0%" stop-color="#b08fbe" /><stop offset="55%" stop-color="#8b5a9f" /><stop offset="100%" stop-color="#6c467c" /></radialGradient><radialGradient id="cg-clay-grad-d47a8e" cx="30%" cy="22%" r="95%" fx="25%" fy="18%"><stop offset="0%" stop-color="#e2a5b2" /><stop offset="55%" stop-color="#d47a8e" /><stop offset="100%" stop-color="#a55f6f" /></radialGradient><radialGradient id="cg-clay-grad-b85a7a" cx="30%" cy="22%" r="95%" fx="25%" fy="18%"><stop offset="0%" stop-color="#cf8fa5" /><stop offset="55%" stop-color="#b85a7a" /><stop offset="100%" stop-color="#90465f" /></radialGradient><radialGradient id="cg-clay-grad-6fa877" cx="30%" cy="22%" r="95%" fx="25%" fy="18%"><stop offset="0%" stop-color="#9dc4a3" /><stop offset="55%" stop-color="#6fa877" /><stop offset="100%" stop-color="#57835d" /></radialGradient><radialGradient id="cg-clay-grad-d16a6a" cx="30%" cy="22%" r="95%" fx="25%" fy="18%"><stop offset="0%" stop-color="#e09a9a" /><stop offset="55%" stop-color="#d16a6a" /><stop offset="100%" stop-color="#a35353" /></radialGradient><radialGradient id="cg-clay-grad-a89a92" cx="30%" cy="22%" r="95%" fx="25%" fy="18%"><stop offset="0%" stop-color="#c4bab5" /><stop offset="55%" stop-color="#a89a92" /><stop offset="100%" stop-color="#837872" /></radialGradient><radialGradient id="cg-clay-grad-a4d4b8" cx="30%" cy="22%" r="95%" fx="25%" fy="18%"><stop offset="0%" stop-color="#c1e2cf" /><stop offset="55%" stop-color="#a4d4b8" /><stop offset="100%" stop-color="#80a590" /></radialGradient><radialGradient id="cg-clay-grad-e69b80" cx="30%" cy="22%" r="95%" fx="25%" fy="18%"><stop offset="0%" stop-color="#eebba9" /><stop offset="55%" stop-color="#e69b80" /><stop offset="100%" stop-color="#b37964" /></radialGradient><radialGradient id="cg-clay-grad-7bb7a5" cx="30%" cy="22%" r="95%" fx="25%" fy="18%"><stop offset="0%" stop-color="#a5cec2" /><stop offset="55%" stop-color="#7bb7a5" /><stop offset="100%" stop-color="#608f81" /></radialGradient><radialGradient id="cg-clay-grad-d87a7a" cx="30%" cy="22%" r="95%" fx="25%" fy="18%"><stop offset="0%" stop-color="#e4a5a5" /><stop offset="55%" stop-color="#d87a7a" /><stop offset="100%" stop-color="#a85f5f" /></radialGradient><radialGradient id="cg-clay-grad-f2c57c" cx="30%" cy="22%" r="95%" fx="25%" fy="18%"><stop offset="0%" stop-color="#f6d8a6" /><stop offset="55%" stop-color="#f2c57c" /><stop offset="100%" stop-color="#bd9a61" /></radialGradient><radialGradient id="cg-clay-grad-a4c8e8" cx="30%" cy="22%" r="95%" fx="25%" fy="18%"><stop offset="0%" stop-color="#c1daef" /><stop offset="55%" stop-color="#a4c8e8" /><stop offset="100%" stop-color="#809cb5" /></radialGradient></defs><rect x="0" y="0" width="960" height="560" fill="#bce5cf" /><rect x="0" y="308" width="960" height="252" fill="url(#cg-clay-floor)" pointer-events="none" /><g class="cg-root"><text x="60" y="52" class="title" fill="#2a2420" style="fill:#2a2420 !important;">Palette share</text><text x="60" y="82" class="subtitle" fill="#5a4e48" style="fill:#5a4e48 !important;">전체 대비 구성비</text><circle cx="270" cy="285" r="120.0" stroke="#a4d4b8" stroke-width="40" fill="none" /><ellipse cx="270.00" cy="434.24" rx="147.00" ry="16.80" fill="#0f0b08" fill-opacity="0.26" filter="url(#cg-clay-blur)" /><path d="M 270.00 145.00 A 140.00 140.00 0 0 1 337.45 407.68 L 318.18 372.63 A 100.00 100.00 0 0 0 270.00 185.00 Z" fill="url(#cg-clay-grad-8b5a9f)" filter="url(#cg-clay-soft)" /><path d="M 337.45 407.68 A 140.00 140.00 0 0 1 143.32 344.61 L 179.52 327.58 A 100.00 100.00 0 0 0 318.18 372.63 Z" fill="url(#cg-clay-grad-e69b80)" filter="url(#cg-clay-soft)" /><path d="M 143.32 344.61 A 140.00 140.00 0 0 1 162.13 195.76 L 192.95 221.26 A 100.00 100.00 0 0 0 179.52 327.58 Z" fill="url(#cg-clay-grad-7bb7a5)" filter="url(#cg-clay-soft)" /><path d="M 162.13 195.76 A 140.00 140.00 0 0 1 270.00 145.00 L 270.00 185.00 A 100.00 100.00 0 0 0 192.95 221.26 Z" fill="url(#cg-clay-grad-d87a7a)" filter="url(#cg-clay-soft)" /><path d="M 130.00 285.00 A 140.00 140.00 0 0 1 410.00 285.00" fill="none" stroke="#ffffff" stroke-width="2" stroke-opacity="0.55" stroke-linecap="round" /><ellipse cx="216.80" cy="198.20" rx="39.20" ry="15.40" fill="#ffffff" fill-opacity="0.55" filter="url(#cg-clay-blur)" pointer-events="none" transform="rotate(-22 216.80 198.20)" /><text x="270" y="277" class="stat" text-anchor="middle" font-size="48" fill="#2a2420" style="fill:#2a2420 !important;">42%</text><text x="270" y="311" class="subtitle" text-anchor="middle" fill="#5a4e48" style="fill:#5a4e48 !important;">Purple</text><rect x="520" y="161" width="18" height="18" rx="6" fill="url(#cg-clay-grad-8b5a9f)" filter="url(#cg-clay-soft)" /><text x="548" y="175" class="label" fill="#5a4e48" style="fill:#5a4e48 !important;">Purple</text><text x="880" y="175" class="value" text-anchor="end" fill="#2a2420" style="fill:#2a2420 !important;">42%</text><rect x="520" y="209" width="18" height="18" rx="6" fill="url(#cg-clay-grad-e69b80)" filter="url(#cg-clay-soft)" /><text x="548" y="223" class="label" fill="#5a4e48" style="fill:#5a4e48 !important;">Peach</text><text x="880" y="223" class="value" text-anchor="end" fill="#2a2420" style="fill:#2a2420 !important;">26%</text><rect x="520" y="257" width="18" height="18" rx="6" fill="url(#cg-clay-grad-7bb7a5)" filter="url(#cg-clay-soft)" /><text x="548" y="271" class="label" fill="#5a4e48" style="fill:#5a4e48 !important;">Sage</text><text x="880" y="271" class="value" text-anchor="end" fill="#2a2420" style="fill:#2a2420 !important;">18%</text><rect x="520" y="305" width="18" height="18" rx="6" fill="url(#cg-clay-grad-d87a7a)" filter="url(#cg-clay-soft)" /><text x="548" y="319" class="label" fill="#5a4e48" style="fill:#5a4e48 !important;">Coral</text><text x="880" y="319" class="value" text-anchor="end" fill="#2a2420" style="fill:#2a2420 !important;">14%</text><text x="60" y="536" class="source" opacity="0.82" fill="#8a7d75" style="fill:#8a7d75 !important;">Source: demo · clay finish</text></g></svg>