<svg xmlns="http://www.w3.org/2000/svg" width="960" height="398" viewBox="0 0 960 398" fill="none"><style>.cg-root .title{font:700 28px 'Space Grotesk', 'Pretendard', 'Apple SD Gothic Neo', sans-serif; fill:#0f172a; letter-spacing:-0.03em;}.cg-root .subtitle{font:500 18px 'IBM Plex Sans KR', 'Pretendard', 'Apple SD Gothic Neo', sans-serif; fill:#0f4c5c;}.cg-root .label,.cg-root .axis,.cg-root .header,.cg-root .cell{font:720 16px 'IBM Plex Sans KR', 'Pretendard', 'Apple SD Gothic Neo', sans-serif; fill:#0f4c5c;}.cg-root .value{font:700 16px 'IBM Plex Sans KR', 'Pretendard', 'Apple SD Gothic Neo', sans-serif; fill:#0f172a;}.cg-root .header{font-weight:700; fill:#0f172a;}.cg-root .tick{font:500 14px 'IBM Plex Sans KR', 'Pretendard', 'Apple SD Gothic Neo', sans-serif; fill:#5a6c78;}.cg-root .source{font:600 14px 'IBM Plex Sans KR', 'Pretendard', 'Apple SD Gothic Neo', sans-serif; fill:#5a6c78; letter-spacing:0.01em;}.cg-root .stat{font:800 72px 'Space Grotesk', 'Pretendard', 'Apple SD Gothic Neo', sans-serif; fill:#0f172a; letter-spacing:-0.04em;}</style><rect x="0" y="0" width="960" height="398" fill="#eef6f7" /><g class="cg-root"><text x="60" y="52" class="title" fill="#0f172a" style="fill:#0f172a !important;">어떤 채널이 다음 분기 성장을 주도할까?</text><text x="60" y="82" class="subtitle" fill="#0f4c5c" style="fill:#0f4c5c !important;">단위: pt</text><rect x="260" y="106" width="520" height="192" fill="#0b1426" rx="16" /><text x="244" y="150" class="label" text-anchor="end" fill="#0f4c5c" style="fill:#0f4c5c !important;">Organic SEO</text><rect x="260" y="134" width="520.00" height="20" rx="10" fill="url(#cg-pattern-bar-horizontal-0)" stroke="#fb923c" stroke-width="3.2" /><text x="900" y="150" class="value" text-anchor="end" fill="#0f172a" style="fill:#0f172a !important;">420pt</text><text x="244" y="198" class="label" text-anchor="end" fill="#0f4c5c" style="fill:#0f4c5c !important;">Influencers</text><rect x="260" y="182" width="334.29" height="20" rx="10" fill="url(#cg-pattern-bar-horizontal-1)" stroke="#fb923c" stroke-width="3.2" /><text x="900" y="198" class="value" text-anchor="end" fill="#0f172a" style="fill:#0f172a !important;">270pt</text><text x="244" y="246" class="label" text-anchor="end" fill="#0f4c5c" style="fill:#0f4c5c !important;">Newsletters</text><rect x="260" y="230" width="222.86" height="20" rx="10" fill="url(#cg-pattern-bar-horizontal-2)" stroke="#fb923c" stroke-width="3.2" /><text x="900" y="246" class="value" text-anchor="end" fill="#0f172a" style="fill:#0f172a !important;">180pt</text><text x="244" y="294" class="label" text-anchor="end" fill="#0f4c5c" style="fill:#0f4c5c !important;">Enterprise</text><rect x="260" y="278" width="160.95" height="20" rx="10" fill="url(#cg-pattern-bar-horizontal-3)" stroke="#fb923c" stroke-width="3.2" /><text x="900" y="294" class="value" text-anchor="end" fill="#0f172a" style="fill:#0f172a !important;">130pt</text><defs><pattern id="cg-pattern-bar-horizontal-0" patternUnits="userSpaceOnUse" width="8.00" height="8.00"><path d="M -4.00 4.00 L 4.00 -4.00 M 0 8.00 L 8.00 0 M 4.00 12.00 L 12.00 4.00" stroke="#fb923c" stroke-width="1.1" stroke-opacity="0.6000000000000001" /></pattern><pattern id="cg-pattern-bar-horizontal-1" patternUnits="userSpaceOnUse" width="8.00" height="8.00"><path d="M -4.00 4.00 L 4.00 -4.00 M 0 8.00 L 8.00 0 M 4.00 12.00 L 12.00 4.00" stroke="#fb923c" stroke-width="1.1" stroke-opacity="0.6000000000000001" /></pattern><pattern id="cg-pattern-bar-horizontal-2" patternUnits="userSpaceOnUse" width="8.00" height="8.00"><path d="M -4.00 4.00 L 4.00 -4.00 M 0 8.00 L 8.00 0 M 4.00 12.00 L 12.00 4.00" stroke="#fb923c" stroke-width="1.1" stroke-opacity="0.6000000000000001" /></pattern><pattern id="cg-pattern-bar-horizontal-3" patternUnits="userSpaceOnUse" width="8.00" height="8.00"><path d="M -4.00 4.00 L 4.00 -4.00 M 0 8.00 L 8.00 0 M 4.00 12.00 L 12.00 4.00" stroke="#fb923c" stroke-width="1.1" stroke-opacity="0.6000000000000001" /></pattern></defs><line x1="934" y1="282" x2="934" y2="380" stroke="#94a3b8" stroke-width="2" stroke-opacity="0.92" /><text x="920" y="374" class="source" text-anchor="end" opacity="0.92" fill="#5a6c78" style="fill:#5a6c78 !important;">Source: Theme gallery benchmark</text></g></svg>