<svg xmlns="http://www.w3.org/2000/svg" width="960" height="538" viewBox="0 0 960 538" fill="none"><style>.cg-root .title{font:700 30px 'Space Grotesk', 'Pretendard', 'Apple SD Gothic Neo', sans-serif; fill:#f8fafc; letter-spacing:-0.03em;}.cg-root .subtitle{font:500 18px 'IBM Plex Sans KR', 'Pretendard', 'Apple SD Gothic Neo', sans-serif; fill:#dbeafe;}.cg-root .label,.cg-root .axis,.cg-root .header,.cg-root .cell{font:700 16px 'IBM Plex Sans KR', 'Pretendard', 'Apple SD Gothic Neo', sans-serif; fill:#dbeafe;}.cg-root .value{font:700 16px 'IBM Plex Sans KR', 'Pretendard', 'Apple SD Gothic Neo', sans-serif; fill:#f8fafc;}.cg-root .header{font-weight:700; fill:#f8fafc;}.cg-root .tick{font:500 14px 'IBM Plex Sans KR', 'Pretendard', 'Apple SD Gothic Neo', sans-serif; fill:#93c5fd;}.cg-root .source{font:500 14px 'IBM Plex Sans KR', 'Pretendard', 'Apple SD Gothic Neo', sans-serif; fill:#93c5fd; letter-spacing:0.01em;}.cg-root .stat{font:800 72px 'Space Grotesk', 'Pretendard', 'Apple SD Gothic Neo', sans-serif; fill:#f8fafc; letter-spacing:-0.04em;}</style><rect x="0" y="0" width="960" height="538" fill="#07101c" /><g class="cg-root"><text x="60" y="56" class="title" fill="#f8fafc" style="fill:#f8fafc !important;">핵심 KPI를 카드 벽으로 요약하라</text><rect x="60" y="126" width="400" height="156" rx="16" fill="#12203a" /><rect x="60" y="126" width="8" height="156" rx="6" fill="#8b5cf6" /><rect x="80" y="144" width="116" height="24" rx="8" fill="#16243f" /><text x="92" y="161" class="source" fill="#93c5fd" style="fill:#93c5fd !important;">SIGNAL KPI</text><text x="80" y="192" class="subtitle" fill="#dbeafe" style="fill:#dbeafe !important;">Active Seats</text><text x="80" y="248" class="stat" font-size="46" fill="#f8fafc" style="fill:#f8fafc !important;">320만</text><line x1="80" y1="264" x2="436" y2="264" stroke="#14b8a6" stroke-width="2" stroke-opacity="0.5" /><rect x="488" y="126" width="400" height="156" rx="16" fill="#12203a" /><rect x="488" y="126" width="8" height="156" rx="6" fill="#8b5cf6" /><rect x="508" y="144" width="116" height="24" rx="8" fill="#16243f" /><text x="520" y="161" class="source" fill="#93c5fd" style="fill:#93c5fd !important;">SIGNAL KPI</text><text x="508" y="192" class="subtitle" fill="#dbeafe" style="fill:#dbeafe !important;">ARR</text><text x="508" y="248" class="stat" font-size="46" fill="#f8fafc" style="fill:#f8fafc !important;">128억</text><line x1="508" y1="264" x2="864" y2="264" stroke="#14b8a6" stroke-width="2" stroke-opacity="0.5" /><rect x="60" y="310" width="400" height="156" rx="16" fill="#12203a" /><rect x="60" y="310" width="8" height="156" rx="6" fill="#8b5cf6" /><rect x="80" y="328" width="116" height="24" rx="8" fill="#16243f" /><text x="92" y="345" class="source" fill="#93c5fd" style="fill:#93c5fd !important;">SIGNAL KPI</text><text x="80" y="376" class="subtitle" fill="#dbeafe" style="fill:#dbeafe !important;">Gross Margin</text><text x="80" y="432" class="stat" font-size="46" fill="#f8fafc" style="fill:#f8fafc !important;">71%</text><line x1="80" y1="448" x2="436" y2="448" stroke="#14b8a6" stroke-width="2" stroke-opacity="0.5" /><text x="60" y="514" class="source" opacity="0.84" fill="#93c5fd" style="fill:#93c5fd !important;">Source: Theme gallery benchmark</text></g></svg>