<svg xmlns="http://www.w3.org/2000/svg" width="960" height="560" viewBox="0 0 960 560" fill="none"><style>.cg-root .title{font:700 30px 'Space Grotesk', 'Pretendard', 'Apple SD Gothic Neo', sans-serif; fill:#2a1d16; letter-spacing:-0.03em;}.cg-root .subtitle{font:500 18px 'IBM Plex Sans KR', 'Pretendard', 'Apple SD Gothic Neo', sans-serif; fill:#5f463c;}.cg-root .label,.cg-root .axis,.cg-root .header,.cg-root .cell{font:650 16px 'IBM Plex Sans KR', 'Pretendard', 'Apple SD Gothic Neo', sans-serif; fill:#5f463c;}.cg-root .value{font:700 16px 'IBM Plex Sans KR', 'Pretendard', 'Apple SD Gothic Neo', sans-serif; fill:#2a1d16;}.cg-root .header{font-weight:700; fill:#2a1d16;}.cg-root .tick{font:500 14px 'IBM Plex Sans KR', 'Pretendard', 'Apple SD Gothic Neo', sans-serif; fill:#8a6f63;}.cg-root .source{font:500 14px 'IBM Plex Sans KR', 'Pretendard', 'Apple SD Gothic Neo', sans-serif; fill:#8a6f63; letter-spacing:0.01em;}.cg-root .stat{font:800 72px 'Space Grotesk', 'Pretendard', 'Apple SD Gothic Neo', sans-serif; fill:#2a1d16; letter-spacing:-0.04em;}</style><rect x="0" y="0" width="960" height="560" fill="#fff6ea" /><g class="cg-root"><text x="60" y="52" class="title" fill="#2a1d16" style="fill:#2a1d16 !important;">색맹 접근성을 위해 점무늬 패턴으로 비중을 구분하라</text><circle cx="270" cy="285" r="120" stroke="#efe7db" stroke-width="40" fill="none" /><circle cx="270" cy="285" r="120" stroke="url(#cg-pattern-donut-0)" stroke-width="40" fill="none" stroke-dasharray="286.51 467.47" stroke-dashoffset="-0.00" transform="rotate(-90 270 285)" /><circle cx="270" cy="285" r="120" stroke="url(#cg-pattern-donut-1)" stroke-width="40" fill="none" stroke-dasharray="196.04 557.95" stroke-dashoffset="-286.51" transform="rotate(-90 270 285)" /><circle cx="270" cy="285" r="120" stroke="url(#cg-pattern-donut-2)" stroke-width="40" fill="none" stroke-dasharray="158.34 595.65" stroke-dashoffset="-482.55" transform="rotate(-90 270 285)" /><circle cx="270" cy="285" r="120" stroke="url(#cg-pattern-donut-3)" stroke-width="40" fill="none" stroke-dasharray="113.10 640.88" stroke-dashoffset="-640.88" transform="rotate(-90 270 285)" /><text x="270" y="277" class="stat" text-anchor="middle" font-size="48" fill="#2a1d16" style="fill:#2a1d16 !important;">38%</text><text x="270" y="311" class="subtitle" text-anchor="middle" fill="#5f463c" style="fill:#5f463c !important;">Organic</text><rect x="520" y="161" width="18" height="18" rx="3" fill="url(#cg-pattern-donut-legend-0)" /><text x="548" y="175" class="label" fill="#5f463c" style="fill:#5f463c !important;">Organic</text><text x="880" y="175" class="value" text-anchor="end" fill="#2a1d16" style="fill:#2a1d16 !important;">38%</text><rect x="520" y="209" width="18" height="18" rx="3" fill="url(#cg-pattern-donut-legend-1)" /><text x="548" y="223" class="label" fill="#5f463c" style="fill:#5f463c !important;">Paid</text><text x="880" y="223" class="value" text-anchor="end" fill="#2a1d16" style="fill:#2a1d16 !important;">26%</text><rect x="520" y="257" width="18" height="18" rx="3" fill="url(#cg-pattern-donut-legend-2)" /><text x="548" y="271" class="label" fill="#5f463c" style="fill:#5f463c !important;">Partner</text><text x="880" y="271" class="value" text-anchor="end" fill="#2a1d16" style="fill:#2a1d16 !important;">21%</text><rect x="520" y="305" width="18" height="18" rx="3" fill="url(#cg-pattern-donut-legend-3)" /><text x="548" y="319" class="label" fill="#5f463c" style="fill:#5f463c !important;">Newsletter</text><text x="880" y="319" class="value" text-anchor="end" fill="#2a1d16" style="fill:#2a1d16 !important;">15%</text><defs><pattern id="cg-pattern-donut-0" patternUnits="userSpaceOnUse" width="22.00" height="22.00"><rect x="0" y="0" width="22.00" height="22.00" fill="#7c3aed" /><circle cx="3.96" cy="4.84" r="2.53" fill="#fff6ea" fill-opacity="0.168" /><circle cx="9.24" cy="5.72" r="4.36" fill="#fff6ea" fill-opacity="0.288" /><circle cx="15.40" cy="7.48" r="6.76" fill="#fff6ea" fill-opacity="0.400" /><circle cx="12.76" cy="14.52" r="3.80" fill="#fff6ea" fill-opacity="0.248" /><circle cx="5.28" cy="17.16" r="1.90" fill="#fff6ea" fill-opacity="0.136" /></pattern><pattern id="cg-pattern-donut-1" patternUnits="userSpaceOnUse" width="22.00" height="22.00"><rect x="0" y="0" width="22.00" height="22.00" fill="#0f766e" /><circle cx="3.96" cy="4.84" r="2.53" fill="#fff6ea" fill-opacity="0.168" /><circle cx="9.24" cy="5.72" r="4.36" fill="#fff6ea" fill-opacity="0.288" /><circle cx="15.40" cy="7.48" r="6.76" fill="#fff6ea" fill-opacity="0.400" /><circle cx="12.76" cy="14.52" r="3.80" fill="#fff6ea" fill-opacity="0.248" /><circle cx="5.28" cy="17.16" r="1.90" fill="#fff6ea" fill-opacity="0.136" /></pattern><pattern id="cg-pattern-donut-2" patternUnits="userSpaceOnUse" width="22.00" height="22.00"><rect x="0" y="0" width="22.00" height="22.00" fill="#ea580c" /><circle cx="3.96" cy="4.84" r="2.53" fill="#fff6ea" fill-opacity="0.168" /><circle cx="9.24" cy="5.72" r="4.36" fill="#fff6ea" fill-opacity="0.288" /><circle cx="15.40" cy="7.48" r="6.76" fill="#fff6ea" fill-opacity="0.400" /><circle cx="12.76" cy="14.52" r="3.80" fill="#fff6ea" fill-opacity="0.248" /><circle cx="5.28" cy="17.16" r="1.90" fill="#fff6ea" fill-opacity="0.136" /></pattern><pattern id="cg-pattern-donut-3" patternUnits="userSpaceOnUse" width="22.00" height="22.00"><rect x="0" y="0" width="22.00" height="22.00" fill="#db2777" /><circle cx="3.96" cy="4.84" r="2.53" fill="#fff6ea" fill-opacity="0.168" /><circle cx="9.24" cy="5.72" r="4.36" fill="#fff6ea" fill-opacity="0.288" /><circle cx="15.40" cy="7.48" r="6.76" fill="#fff6ea" fill-opacity="0.400" /><circle cx="12.76" cy="14.52" r="3.80" fill="#fff6ea" fill-opacity="0.248" /><circle cx="5.28" cy="17.16" r="1.90" fill="#fff6ea" fill-opacity="0.136" /></pattern><pattern id="cg-pattern-donut-legend-0" patternUnits="userSpaceOnUse" width="22.00" height="22.00"><rect x="0" y="0" width="22.00" height="22.00" fill="#7c3aed" /><circle cx="3.96" cy="4.84" r="2.53" fill="#fff6ea" fill-opacity="0.168" /><circle cx="9.24" cy="5.72" r="4.36" fill="#fff6ea" fill-opacity="0.288" /><circle cx="15.40" cy="7.48" r="6.76" fill="#fff6ea" fill-opacity="0.400" /><circle cx="12.76" cy="14.52" r="3.80" fill="#fff6ea" fill-opacity="0.248" /><circle cx="5.28" cy="17.16" r="1.90" fill="#fff6ea" fill-opacity="0.136" /></pattern><pattern id="cg-pattern-donut-legend-1" patternUnits="userSpaceOnUse" width="22.00" height="22.00"><rect x="0" y="0" width="22.00" height="22.00" fill="#0f766e" /><circle cx="3.96" cy="4.84" r="2.53" fill="#fff6ea" fill-opacity="0.168" /><circle cx="9.24" cy="5.72" r="4.36" fill="#fff6ea" fill-opacity="0.288" /><circle cx="15.40" cy="7.48" r="6.76" fill="#fff6ea" fill-opacity="0.400" /><circle cx="12.76" cy="14.52" r="3.80" fill="#fff6ea" fill-opacity="0.248" /><circle cx="5.28" cy="17.16" r="1.90" fill="#fff6ea" fill-opacity="0.136" /></pattern><pattern id="cg-pattern-donut-legend-2" patternUnits="userSpaceOnUse" width="22.00" height="22.00"><rect x="0" y="0" width="22.00" height="22.00" fill="#ea580c" /><circle cx="3.96" cy="4.84" r="2.53" fill="#fff6ea" fill-opacity="0.168" /><circle cx="9.24" cy="5.72" r="4.36" fill="#fff6ea" fill-opacity="0.288" /><circle cx="15.40" cy="7.48" r="6.76" fill="#fff6ea" fill-opacity="0.400" /><circle cx="12.76" cy="14.52" r="3.80" fill="#fff6ea" fill-opacity="0.248" /><circle cx="5.28" cy="17.16" r="1.90" fill="#fff6ea" fill-opacity="0.136" /></pattern><pattern id="cg-pattern-donut-legend-3" patternUnits="userSpaceOnUse" width="22.00" height="22.00"><rect x="0" y="0" width="22.00" height="22.00" fill="#db2777" /><circle cx="3.96" cy="4.84" r="2.53" fill="#fff6ea" fill-opacity="0.168" /><circle cx="9.24" cy="5.72" r="4.36" fill="#fff6ea" fill-opacity="0.288" /><circle cx="15.40" cy="7.48" r="6.76" fill="#fff6ea" fill-opacity="0.400" /><circle cx="12.76" cy="14.52" r="3.80" fill="#fff6ea" fill-opacity="0.248" /><circle cx="5.28" cy="17.16" r="1.90" fill="#fff6ea" fill-opacity="0.136" /></pattern></defs><text x="60" y="536" class="source" opacity="0.8" fill="#8a6f63" style="fill:#8a6f63 !important;">Source: Accessibility review</text></g></svg>