<svg xmlns="http://www.w3.org/2000/svg" width="960" height="342" viewBox="0 0 960 342" fill="none"><style>.cg-root .title{font:700 28px 'Space Grotesk', 'Pretendard', 'Apple SD Gothic Neo', sans-serif; fill:#111827; letter-spacing:-0.03em;}.cg-root .subtitle{font:500 18px 'IBM Plex Mono', 'JetBrains Mono', monospace; fill:#243243;}.cg-root .label,.cg-root .axis,.cg-root .header,.cg-root .cell{font:600 16px 'IBM Plex Mono', 'JetBrains Mono', monospace; fill:#243243;}.cg-root .value{font:700 16px 'IBM Plex Mono', 'JetBrains Mono', monospace; fill:#111827;}.cg-root .header{font-weight:700; fill:#111827;}.cg-root .tick{font:500 14px 'IBM Plex Mono', 'JetBrains Mono', monospace; fill:#526070;}.cg-root .source{font:500 14px 'IBM Plex Mono', 'JetBrains Mono', monospace; fill:#526070; letter-spacing:0.01em;}.cg-root .stat{font:800 72px 'Space Grotesk', 'Pretendard', 'Apple SD Gothic Neo', sans-serif; fill:#111827; letter-spacing:-0.04em;}</style><rect x="0" y="0" width="960" height="342" fill="#eff4f7" /><g class="cg-root"><text x="60" y="50" class="title" fill="#111827" style="fill:#111827 !important;">세 플랜은 무엇이 다른가?</text><rect x="60" y="112" width="840" height="40" fill="#dde7ef" rx="12" /><text x="74.00" y="137" class="header" fill="#111827" style="fill:#111827 !important;">플랜</text><text x="466.00" y="137" class="header" text-anchor="end" fill="#111827" style="fill:#111827 !important;">월 요금</text><text x="494.00" y="137" class="header" fill="#111827" style="fill:#111827 !important;">AI 크레딧</text><text x="886.00" y="137" class="header" text-anchor="end" fill="#111827" style="fill:#111827 !important;">협업 좌석</text><rect x="60" y="152" width="840" height="40" fill="#f9fbfd" /><text x="74.00" y="177" class="cell" fill="#243243" style="fill:#243243 !important;">Starter</text><line x1="60.00" y1="112" x2="60.00" y2="192" stroke="#c4d2de" /><text x="466.00" y="177" class="cell" text-anchor="end" fill="#243243" style="fill:#243243 !important;">9,900</text><line x1="270.00" y1="112" x2="270.00" y2="192" stroke="#c4d2de" /><text x="494.00" y="177" class="cell" fill="#243243" style="fill:#243243 !important;">50</text><line x1="480.00" y1="112" x2="480.00" y2="192" stroke="#c4d2de" /><text x="886.00" y="177" class="cell" text-anchor="end" fill="#243243" style="fill:#243243 !important;">1</text><line x1="690.00" y1="112" x2="690.00" y2="192" stroke="#c4d2de" /><rect x="60" y="192" width="840" height="40" fill="#ebf1f5" /><text x="74.00" y="217" class="cell" fill="#243243" style="fill:#243243 !important;">Pro</text><line x1="60.00" y1="112" x2="60.00" y2="232" stroke="#c4d2de" /><text x="466.00" y="217" class="cell" text-anchor="end" fill="#243243" style="fill:#243243 !important;">24,900</text><line x1="270.00" y1="112" x2="270.00" y2="232" stroke="#c4d2de" /><text x="494.00" y="217" class="cell" fill="#243243" style="fill:#243243 !important;">250</text><line x1="480.00" y1="112" x2="480.00" y2="232" stroke="#c4d2de" /><text x="886.00" y="217" class="cell" text-anchor="end" fill="#243243" style="fill:#243243 !important;">5</text><line x1="690.00" y1="112" x2="690.00" y2="232" stroke="#c4d2de" /><rect x="60" y="232" width="840" height="40" fill="#f9fbfd" /><text x="74.00" y="257" class="cell" fill="#243243" style="fill:#243243 !important;">Scale</text><line x1="60.00" y1="112" x2="60.00" y2="272" stroke="#c4d2de" /><text x="466.00" y="257" class="cell" text-anchor="end" fill="#243243" style="fill:#243243 !important;">59,000</text><line x1="270.00" y1="112" x2="270.00" y2="272" stroke="#c4d2de" /><text x="494.00" y="257" class="cell" fill="#243243" style="fill:#243243 !important;">Unlimited</text><line x1="480.00" y1="112" x2="480.00" y2="272" stroke="#c4d2de" /><text x="886.00" y="257" class="cell" text-anchor="end" fill="#243243" style="fill:#243243 !important;">20</text><line x1="690.00" y1="112" x2="690.00" y2="272" stroke="#c4d2de" /><line x1="900.00" y1="112" x2="900.00" y2="272" stroke="#c4d2de" /><text x="900" y="318" class="source" text-anchor="end" opacity="0.72" fill="#526070" style="fill:#526070 !important;">Source: Theme gallery benchmark</text></g></svg>