<svg xmlns="http://www.w3.org/2000/svg" width="960" height="398" viewBox="0 0 960 398" fill="none"><style>.cg-root .title{font:700 28px 'Space Grotesk', 'Pretendard', 'Apple SD Gothic Neo', sans-serif; fill:#0f172a; letter-spacing:-0.03em;}.cg-root .subtitle{font:500 18px 'IBM Plex Sans KR', 'Pretendard', 'Apple SD Gothic Neo', sans-serif; fill:#0f4c5c;}.cg-root .label,.cg-root .axis,.cg-root .header,.cg-root .cell{font:650 16px 'IBM Plex Sans KR', 'Pretendard', 'Apple SD Gothic Neo', sans-serif; fill:#0f4c5c;}.cg-root .value{font:700 16px 'IBM Plex Sans KR', 'Pretendard', 'Apple SD Gothic Neo', sans-serif; fill:#0f172a;}.cg-root .header{font-weight:700; fill:#0f172a;}.cg-root .tick{font:500 14px 'IBM Plex Sans KR', 'Pretendard', 'Apple SD Gothic Neo', sans-serif; fill:#5a6c78;}.cg-root .source{font:500 14px 'IBM Plex Sans KR', 'Pretendard', 'Apple SD Gothic Neo', sans-serif; fill:#5a6c78; letter-spacing:0.01em;}.cg-root .stat{font:800 72px 'Space Grotesk', 'Pretendard', 'Apple SD Gothic Neo', sans-serif; fill:#0f172a; letter-spacing:-0.04em;}</style><rect x="0" y="0" width="960" height="398" fill="#eef6f7" /><g class="cg-root"><text x="60" y="52" class="title" fill="#0f172a" style="fill:#0f172a !important;">색맹 접근성을 위해 점무늬 패턴으로 채널을 비교하라</text><text x="60" y="82" class="subtitle" fill="#0f4c5c" style="fill:#0f4c5c !important;">단위: pt</text><rect x="260" y="106" width="520" height="192" fill="#f7fbfc" rx="16" /><text x="244" y="150" class="label" text-anchor="end" fill="#0f4c5c" style="fill:#0f4c5c !important;">Organic Search</text><rect x="260" y="134" width="520.00" height="20" rx="10" fill="url(#cg-pattern-bar-horizontal-0)" /><text x="900" y="150" class="value" text-anchor="end" fill="#0f172a" style="fill:#0f172a !important;">42pt</text><text x="244" y="198" class="label" text-anchor="end" fill="#0f4c5c" style="fill:#0f4c5c !important;">Enterprise...</text><rect x="260" y="182" width="383.81" height="20" rx="10" fill="url(#cg-pattern-bar-horizontal-1)" /><text x="900" y="198" class="value" text-anchor="end" fill="#0f172a" style="fill:#0f172a !important;">31pt</text><text x="244" y="246" class="label" text-anchor="end" fill="#0f4c5c" style="fill:#0f4c5c !important;">Lifecycle E...</text><rect x="260" y="230" width="260.00" height="20" rx="10" fill="url(#cg-pattern-bar-horizontal-2)" /><text x="900" y="246" class="value" text-anchor="end" fill="#0f172a" style="fill:#0f172a !important;">21pt</text><text x="244" y="294" class="label" text-anchor="end" fill="#0f4c5c" style="fill:#0f4c5c !important;">Partner Net...</text><rect x="260" y="278" width="173.33" height="20" rx="10" fill="url(#cg-pattern-bar-horizontal-3)" /><text x="900" y="294" class="value" text-anchor="end" fill="#0f172a" style="fill:#0f172a !important;">14pt</text><defs><pattern id="cg-pattern-bar-horizontal-0" patternUnits="userSpaceOnUse" width="18.00" height="18.00"><rect x="0" y="0" width="18.00" height="18.00" fill="#0f766e" /><circle cx="3.24" cy="3.24" r="1.68" fill="#eef6f7" fill-opacity="0.122" /><circle cx="9.00" cy="3.24" r="2.68" fill="#eef6f7" fill-opacity="0.173" /><circle cx="14.76" cy="3.24" r="1.68" fill="#eef6f7" fill-opacity="0.122" /><circle cx="3.24" cy="9.00" r="2.68" fill="#eef6f7" fill-opacity="0.173" /><circle cx="9.00" cy="9.00" r="1.99" fill="#eef6f7" fill-opacity="0.148" /><circle cx="14.76" cy="9.00" r="2.68" fill="#eef6f7" fill-opacity="0.173" /><circle cx="3.24" cy="14.76" r="1.68" fill="#eef6f7" fill-opacity="0.122" /><circle cx="9.00" cy="14.76" r="2.68" fill="#eef6f7" fill-opacity="0.173" /><circle cx="14.76" cy="14.76" r="1.68" fill="#eef6f7" fill-opacity="0.122" /></pattern><pattern id="cg-pattern-bar-horizontal-1" patternUnits="userSpaceOnUse" width="18.00" height="18.00"><rect x="0" y="0" width="18.00" height="18.00" fill="#0f766e" /><circle cx="3.24" cy="3.24" r="1.68" fill="#eef6f7" fill-opacity="0.122" /><circle cx="9.00" cy="3.24" r="2.68" fill="#eef6f7" fill-opacity="0.173" /><circle cx="14.76" cy="3.24" r="1.68" fill="#eef6f7" fill-opacity="0.122" /><circle cx="3.24" cy="9.00" r="2.68" fill="#eef6f7" fill-opacity="0.173" /><circle cx="9.00" cy="9.00" r="1.99" fill="#eef6f7" fill-opacity="0.148" /><circle cx="14.76" cy="9.00" r="2.68" fill="#eef6f7" fill-opacity="0.173" /><circle cx="3.24" cy="14.76" r="1.68" fill="#eef6f7" fill-opacity="0.122" /><circle cx="9.00" cy="14.76" r="2.68" fill="#eef6f7" fill-opacity="0.173" /><circle cx="14.76" cy="14.76" r="1.68" fill="#eef6f7" fill-opacity="0.122" /></pattern><pattern id="cg-pattern-bar-horizontal-2" patternUnits="userSpaceOnUse" width="18.00" height="18.00"><rect x="0" y="0" width="18.00" height="18.00" fill="#0f766e" /><circle cx="3.24" cy="3.24" r="1.68" fill="#eef6f7" fill-opacity="0.122" /><circle cx="9.00" cy="3.24" r="2.68" fill="#eef6f7" fill-opacity="0.173" /><circle cx="14.76" cy="3.24" r="1.68" fill="#eef6f7" fill-opacity="0.122" /><circle cx="3.24" cy="9.00" r="2.68" fill="#eef6f7" fill-opacity="0.173" /><circle cx="9.00" cy="9.00" r="1.99" fill="#eef6f7" fill-opacity="0.148" /><circle cx="14.76" cy="9.00" r="2.68" fill="#eef6f7" fill-opacity="0.173" /><circle cx="3.24" cy="14.76" r="1.68" fill="#eef6f7" fill-opacity="0.122" /><circle cx="9.00" cy="14.76" r="2.68" fill="#eef6f7" fill-opacity="0.173" /><circle cx="14.76" cy="14.76" r="1.68" fill="#eef6f7" fill-opacity="0.122" /></pattern><pattern id="cg-pattern-bar-horizontal-3" patternUnits="userSpaceOnUse" width="18.00" height="18.00"><rect x="0" y="0" width="18.00" height="18.00" fill="#0f766e" /><circle cx="3.24" cy="3.24" r="1.68" fill="#eef6f7" fill-opacity="0.122" /><circle cx="9.00" cy="3.24" r="2.68" fill="#eef6f7" fill-opacity="0.173" /><circle cx="14.76" cy="3.24" r="1.68" fill="#eef6f7" fill-opacity="0.122" /><circle cx="3.24" cy="9.00" r="2.68" fill="#eef6f7" fill-opacity="0.173" /><circle cx="9.00" cy="9.00" r="1.99" fill="#eef6f7" fill-opacity="0.148" /><circle cx="14.76" cy="9.00" r="2.68" fill="#eef6f7" fill-opacity="0.173" /><circle cx="3.24" cy="14.76" r="1.68" fill="#eef6f7" fill-opacity="0.122" /><circle cx="9.00" cy="14.76" r="2.68" fill="#eef6f7" fill-opacity="0.173" /><circle cx="14.76" cy="14.76" r="1.68" fill="#eef6f7" fill-opacity="0.122" /></pattern></defs><text x="900" y="374" class="source" text-anchor="end" opacity="0.8" fill="#5a6c78" style="fill:#5a6c78 !important;">Source: Accessibility review</text></g></svg>