<svg xmlns="http://www.w3.org/2000/svg" width="960" height="354" viewBox="0 0 960 354" fill="none"><style>.cg-root .title{font:700 28px 'Space Grotesk', 'Pretendard', 'Apple SD Gothic Neo', sans-serif; fill:#f8fafc; letter-spacing:-0.03em;}.cg-root .subtitle{font:500 18px 'IBM Plex Sans KR', 'Pretendard', 'Apple SD Gothic Neo', sans-serif; fill:#dbeafe;}.cg-root .label,.cg-root .axis,.cg-root .header,.cg-root .cell{font:700 16px 'IBM Plex Sans KR', 'Pretendard', 'Apple SD Gothic Neo', sans-serif; fill:#dbeafe;}.cg-root .value{font:700 16px 'IBM Plex Sans KR', 'Pretendard', 'Apple SD Gothic Neo', sans-serif; fill:#f8fafc;}.cg-root .header{font-weight:700; fill:#f8fafc;}.cg-root .tick{font:500 14px 'IBM Plex Sans KR', 'Pretendard', 'Apple SD Gothic Neo', sans-serif; fill:#93c5fd;}.cg-root .source{font:600 14px 'IBM Plex Sans KR', 'Pretendard', 'Apple SD Gothic Neo', sans-serif; fill:#93c5fd; letter-spacing:0.01em;}.cg-root .stat{font:800 72px 'Space Grotesk', 'Pretendard', 'Apple SD Gothic Neo', sans-serif; fill:#f8fafc; letter-spacing:-0.04em;}</style><rect x="0" y="0" width="960" height="354" fill="#07101c" /><g class="cg-root"><text x="60" y="56" class="title" fill="#f8fafc" style="fill:#f8fafc !important;">접근성 세트에서도 플랜 비교표를 유지하라</text><rect x="60" y="124" width="840" height="40" fill="#16243f" rx="12" /><text x="74.00" y="149" class="header" fill="#f8fafc" style="fill:#f8fafc !important;">플랜</text><text x="466.00" y="149" class="header" text-anchor="end" fill="#f8fafc" style="fill:#f8fafc !important;">월 요금</text><text x="494.00" y="149" class="header" fill="#f8fafc" style="fill:#f8fafc !important;">AI 크레딧</text><text x="886.00" y="149" class="header" text-anchor="end" fill="#f8fafc" style="fill:#f8fafc !important;">협업 좌석</text><rect x="60" y="164" width="840" height="40" fill="#0c1730" /><text x="74.00" y="189" class="cell" fill="#dbeafe" style="fill:#dbeafe !important;">Starter</text><line x1="60.00" y1="124" x2="60.00" y2="204" stroke="#314159" /><text x="466.00" y="189" class="cell" text-anchor="end" fill="#dbeafe" style="fill:#dbeafe !important;">9,900</text><line x1="270.00" y1="124" x2="270.00" y2="204" stroke="#314159" /><text x="494.00" y="189" class="cell" fill="#dbeafe" style="fill:#dbeafe !important;">50</text><line x1="480.00" y1="124" x2="480.00" y2="204" stroke="#314159" /><text x="886.00" y="189" class="cell" text-anchor="end" fill="#dbeafe" style="fill:#dbeafe !important;">1</text><line x1="690.00" y1="124" x2="690.00" y2="204" stroke="#314159" /><rect x="60" y="204" width="840" height="40" fill="#12203a" /><text x="74.00" y="229" class="cell" fill="#dbeafe" style="fill:#dbeafe !important;">Pro</text><line x1="60.00" y1="124" x2="60.00" y2="244" stroke="#314159" /><text x="466.00" y="229" class="cell" text-anchor="end" fill="#dbeafe" style="fill:#dbeafe !important;">24,900</text><line x1="270.00" y1="124" x2="270.00" y2="244" stroke="#314159" /><text x="494.00" y="229" class="cell" fill="#dbeafe" style="fill:#dbeafe !important;">250</text><line x1="480.00" y1="124" x2="480.00" y2="244" stroke="#314159" /><text x="886.00" y="229" class="cell" text-anchor="end" fill="#dbeafe" style="fill:#dbeafe !important;">5</text><line x1="690.00" y1="124" x2="690.00" y2="244" stroke="#314159" /><rect x="60" y="244" width="840" height="40" fill="#0c1730" /><text x="74.00" y="269" class="cell" fill="#dbeafe" style="fill:#dbeafe !important;">Scale</text><line x1="60.00" y1="124" x2="60.00" y2="284" stroke="#314159" /><text x="466.00" y="269" class="cell" text-anchor="end" fill="#dbeafe" style="fill:#dbeafe !important;">59,000</text><line x1="270.00" y1="124" x2="270.00" y2="284" stroke="#314159" /><text x="494.00" y="269" class="cell" fill="#dbeafe" style="fill:#dbeafe !important;">Unlimited</text><line x1="480.00" y1="124" x2="480.00" y2="284" stroke="#314159" /><text x="886.00" y="269" class="cell" text-anchor="end" fill="#dbeafe" style="fill:#dbeafe !important;">20</text><line x1="690.00" y1="124" x2="690.00" y2="284" stroke="#314159" /><line x1="900.00" y1="124" x2="900.00" y2="284" stroke="#314159" /><line x1="934" y1="238" x2="934" y2="336" stroke="#4b5d78" stroke-width="2" stroke-opacity="0.9" /><text x="920" y="330" class="source" text-anchor="end" opacity="0.9" fill="#93c5fd" style="fill:#93c5fd !important;">Source: Accessibility review</text></g></svg>