<svg xmlns="http://www.w3.org/2000/svg" width="960" height="358" viewBox="0 0 960 358" fill="none"><style>.cg-root .title{font:700 28px 'Space Grotesk', 'Pretendard', 'Apple SD Gothic Neo', sans-serif; fill:#0f172a; letter-spacing:-0.03em;}.cg-root .subtitle{font:500 18px 'Space Grotesk', 'Pretendard', 'Apple SD Gothic Neo', sans-serif; fill:#314155;}.cg-root .label,.cg-root .axis,.cg-root .header,.cg-root .cell{font:720 16px 'Space Grotesk', 'Pretendard', 'Apple SD Gothic Neo', sans-serif; fill:#314155;}.cg-root .value{font:700 16px 'Space Grotesk', 'Pretendard', 'Apple SD Gothic Neo', sans-serif; fill:#0f172a;}.cg-root .header{font-weight:700; fill:#0f172a;}.cg-root .tick{font:500 14px 'Space Grotesk', 'Pretendard', 'Apple SD Gothic Neo', sans-serif; fill:#64748b;}.cg-root .source{font:600 14px 'Space Grotesk', 'Pretendard', 'Apple SD Gothic Neo', sans-serif; fill:#64748b; letter-spacing:0.01em;}.cg-root .stat{font:800 72px 'Space Grotesk', 'Pretendard', 'Apple SD Gothic Neo', sans-serif; fill:#0f172a; letter-spacing:-0.04em;}</style><rect x="0" y="0" width="960" height="358" fill="#fcfdff" /><g class="cg-root"><text x="60" y="50" class="title" fill="#0f172a" style="fill:#0f172a !important;">세 플랜은 무엇이 다른가?</text><text x="60" y="78" class="subtitle" fill="#314155" style="fill:#314155 !important;">row column table normalized dataset</text><rect x="60" y="128" width="840" height="40" fill="#e8eef5" rx="12" /><text x="74.00" y="153" class="header" fill="#0f172a" style="fill:#0f172a !important;">플랜</text><text x="466.00" y="153" class="header" text-anchor="end" fill="#0f172a" style="fill:#0f172a !important;">월 요금</text><text x="494.00" y="153" class="header" fill="#0f172a" style="fill:#0f172a !important;">AI 크레딧</text><text x="886.00" y="153" class="header" text-anchor="end" fill="#0f172a" style="fill:#0f172a !important;">협업 좌석</text><rect x="60" y="168" width="840" height="40" fill="#0f1a31" /><text x="74.00" y="193" class="cell" fill="#314155" style="fill:#314155 !important;">Starter</text><line x1="60.00" y1="128" x2="60.00" y2="208" stroke="#cbd5e1" /><text x="466.00" y="193" class="cell" text-anchor="end" fill="#314155" style="fill:#314155 !important;">9,900</text><line x1="270.00" y1="128" x2="270.00" y2="208" stroke="#cbd5e1" /><text x="494.00" y="193" class="cell" fill="#314155" style="fill:#314155 !important;">50</text><line x1="480.00" y1="128" x2="480.00" y2="208" stroke="#cbd5e1" /><text x="886.00" y="193" class="cell" text-anchor="end" fill="#314155" style="fill:#314155 !important;">1</text><line x1="690.00" y1="128" x2="690.00" y2="208" stroke="#cbd5e1" /><rect x="60" y="208" width="840" height="40" fill="#f4f7fb" /><text x="74.00" y="233" class="cell" fill="#314155" style="fill:#314155 !important;">Pro</text><line x1="60.00" y1="128" x2="60.00" y2="248" stroke="#cbd5e1" /><text x="466.00" y="233" class="cell" text-anchor="end" fill="#314155" style="fill:#314155 !important;">24,900</text><line x1="270.00" y1="128" x2="270.00" y2="248" stroke="#cbd5e1" /><text x="494.00" y="233" class="cell" fill="#314155" style="fill:#314155 !important;">250</text><line x1="480.00" y1="128" x2="480.00" y2="248" stroke="#cbd5e1" /><text x="886.00" y="233" class="cell" text-anchor="end" fill="#314155" style="fill:#314155 !important;">5</text><line x1="690.00" y1="128" x2="690.00" y2="248" stroke="#cbd5e1" /><rect x="60" y="248" width="840" height="40" fill="#0f1a31" /><text x="74.00" y="273" class="cell" fill="#314155" style="fill:#314155 !important;">Scale</text><line x1="60.00" y1="128" x2="60.00" y2="288" stroke="#cbd5e1" /><text x="466.00" y="273" class="cell" text-anchor="end" fill="#314155" style="fill:#314155 !important;">59,000</text><line x1="270.00" y1="128" x2="270.00" y2="288" stroke="#cbd5e1" /><text x="494.00" y="273" class="cell" fill="#314155" style="fill:#314155 !important;">Unlimited</text><line x1="480.00" y1="128" x2="480.00" y2="288" stroke="#cbd5e1" /><text x="886.00" y="273" class="cell" text-anchor="end" fill="#314155" style="fill:#314155 !important;">20</text><line x1="690.00" y1="128" x2="690.00" y2="288" stroke="#cbd5e1" /><line x1="900.00" y1="128" x2="900.00" y2="288" stroke="#cbd5e1" /><line x1="934" y1="242" x2="934" y2="340" stroke="#94a3b8" stroke-width="2" stroke-opacity="0.92" /><text x="920" y="334" class="source" text-anchor="end" opacity="0.92" fill="#64748b" style="fill:#64748b !important;">Source: Theme gallery benchmark</text></g></svg>