<svg xmlns="http://www.w3.org/2000/svg" width="960" height="560" viewBox="0 0 960 560" fill="none"><style>.cg-root .title{font:700 28px 'Space Grotesk', 'Pretendard', 'Apple SD Gothic Neo', sans-serif; fill:#111827; letter-spacing:-0.03em;}.cg-root .subtitle{font:500 18px 'IBM Plex Mono', 'JetBrains Mono', monospace; fill:#243243;}.cg-root .label,.cg-root .axis,.cg-root .header,.cg-root .cell{font:600 16px 'IBM Plex Mono', 'JetBrains Mono', monospace; fill:#243243;}.cg-root .value{font:700 16px 'IBM Plex Mono', 'JetBrains Mono', monospace; fill:#111827;}.cg-root .header{font-weight:700; fill:#111827;}.cg-root .tick{font:500 14px 'IBM Plex Mono', 'JetBrains Mono', monospace; fill:#526070;}.cg-root .source{font:500 14px 'IBM Plex Mono', 'JetBrains Mono', monospace; fill:#526070; letter-spacing:0.01em;}.cg-root .stat{font:800 72px 'Space Grotesk', 'Pretendard', 'Apple SD Gothic Neo', sans-serif; fill:#111827; letter-spacing:-0.04em;}</style><rect x="0" y="0" width="960" height="560" fill="#eff4f7" /><g class="cg-root"><text x="60" y="52" class="title" fill="#111827" style="fill:#111827 !important;">빗금 패턴으로 비중을 구분하라</text><circle cx="270" cy="285" r="120" stroke="#dbe7ec" stroke-width="40" fill="none" /><circle cx="270" cy="285" r="120" stroke="#2563eb" stroke-width="40" fill="none" stroke-dasharray="316.67 437.31" stroke-dashoffset="-0.00" transform="rotate(-90 270 285)" /><circle cx="270" cy="285" r="120" stroke="url(#cg-pattern-donut-1)" stroke-width="40" fill="none" stroke-dasharray="203.58 550.41" stroke-dashoffset="-316.67" transform="rotate(-90 270 285)" /><circle cx="270" cy="285" r="120" stroke="#10b981" stroke-width="40" fill="none" stroke-dasharray="143.26 610.73" stroke-dashoffset="-520.25" transform="rotate(-90 270 285)" /><circle cx="270" cy="285" r="120" stroke="url(#cg-pattern-donut-3)" stroke-width="40" fill="none" stroke-dasharray="90.48 663.50" stroke-dashoffset="-663.50" transform="rotate(-90 270 285)" /><text x="270" y="277" class="stat" text-anchor="middle" font-size="48" fill="#111827" style="fill:#111827 !important;">42%</text><text x="270" y="311" class="subtitle" text-anchor="middle" fill="#243243" style="fill:#243243 !important;">Organic</text><rect x="520" y="161" width="18" height="18" rx="4" fill="#2563eb" /><text x="548" y="175" class="label" fill="#243243" style="fill:#243243 !important;">Organic</text><text x="880" y="175" class="value" text-anchor="end" fill="#111827" style="fill:#111827 !important;">42%</text><rect x="520" y="209" width="18" height="18" rx="4" fill="url(#cg-pattern-donut-legend-1)" /><text x="548" y="223" class="label" fill="#243243" style="fill:#243243 !important;">Paid</text><text x="880" y="223" class="value" text-anchor="end" fill="#111827" style="fill:#111827 !important;">27%</text><rect x="520" y="257" width="18" height="18" rx="4" fill="#10b981" /><text x="548" y="271" class="label" fill="#243243" style="fill:#243243 !important;">Partner</text><text x="880" y="271" class="value" text-anchor="end" fill="#111827" style="fill:#111827 !important;">19%</text><rect x="520" y="305" width="18" height="18" rx="4" fill="url(#cg-pattern-donut-legend-3)" /><text x="548" y="319" class="label" fill="#243243" style="fill:#243243 !important;">Newsletter</text><text x="880" y="319" class="value" text-anchor="end" fill="#111827" style="fill:#111827 !important;">12%</text><defs><pattern id="cg-pattern-donut-1" patternUnits="userSpaceOnUse" width="7.00" height="7.00"><rect x="0" y="0" width="7.00" height="7.00" fill="#0ea5e9" /><path d="M -3.50 3.50 L 3.50 -3.50 M 0 7.00 L 7.00 0 M 3.50 10.50 L 10.50 3.50" stroke="#eff4f7" stroke-width="1.1" stroke-opacity="0.24" /></pattern><pattern id="cg-pattern-donut-3" patternUnits="userSpaceOnUse" width="7.00" height="7.00"><rect x="0" y="0" width="7.00" height="7.00" fill="#f59e0b" /><path d="M -3.50 3.50 L 3.50 -3.50 M 0 7.00 L 7.00 0 M 3.50 10.50 L 10.50 3.50" stroke="#eff4f7" stroke-width="1.1" stroke-opacity="0.24" /></pattern><pattern id="cg-pattern-donut-legend-1" patternUnits="userSpaceOnUse" width="7.00" height="7.00"><rect x="0" y="0" width="7.00" height="7.00" fill="#0ea5e9" /><path d="M -3.50 3.50 L 3.50 -3.50 M 0 7.00 L 7.00 0 M 3.50 10.50 L 10.50 3.50" stroke="#eff4f7" stroke-width="1.1" stroke-opacity="0.24" /></pattern><pattern id="cg-pattern-donut-legend-3" patternUnits="userSpaceOnUse" width="7.00" height="7.00"><rect x="0" y="0" width="7.00" height="7.00" fill="#f59e0b" /><path d="M -3.50 3.50 L 3.50 -3.50 M 0 7.00 L 7.00 0 M 3.50 10.50 L 10.50 3.50" stroke="#eff4f7" stroke-width="1.1" stroke-opacity="0.24" /></pattern></defs><text x="900" y="536" class="source" text-anchor="end" opacity="0.72" fill="#526070" style="fill:#526070 !important;">Source: Pattern reference set</text></g></svg>